
<svg version="1.1" id="Capa_1" xmlns="http://www.w3.org/2000/svg" xmlns:xlink="http://www.w3.org/1999/xlink" x="0px" y="0px"
	 width="89.609px" height="88px" viewBox="0 0 89.609 88" style="enable-background:new 0 0 89.609 88;" xml:space="preserve">
<path d="M4.754,21.943c0,7.468,2.494,12.859,7.412,16.027c4.025,2.594,8.701,2.981,11.129,2.981c0.59,0,1.062-0.022,1.393-0.044
	c0,0-0.771,5.016,2.949,9.981l-0.168-0.002C21.023,50.888,0,52.234,0,69.517c0,17.585,19.309,18.478,23.182,18.478
	c0.303,0,0.48-0.006,0.48-0.006C23.705,87.989,23.982,88,24.453,88c2.486,0,8.912-0.312,14.879-3.213
	C47.072,81.029,51,74.494,51,65.362c0-8.825-5.982-14.077-10.35-17.916c-2.666-2.338-4.969-4.358-4.969-6.322
	c0-2.001,1.682-3.505,3.809-5.41c3.445-3.081,6.691-7.466,6.691-15.755c0-7.287-0.945-12.178-6.766-15.281
	c0.607-0.311,2.752-0.537,3.814-0.684C46.385,3.563,51,3.074,51,0.498V0H28.006C27.775,0.006,4.754,0.859,4.754,21.943z
	 M41.871,67.007c0.439,7.033-5.576,12.222-14.607,12.879c-9.174,0.67-16.727-3.46-17.166-10.483
	c-0.213-3.374,1.271-6.684,4.176-9.316c2.947-2.669,6.992-4.314,11.393-4.639c0.52-0.033,1.035-0.054,1.549-0.054
	C35.705,55.394,41.455,60.384,41.871,67.007z M35.867,17.131c2.256,7.934-1.15,16.229-6.578,17.759
	c-0.623,0.175-1.27,0.265-1.922,0.265c-4.973,0-9.9-5.031-11.725-11.96c-1.02-3.894-0.938-7.296,0.232-10.568
	c1.15-3.219,3.215-5.393,5.814-6.124c0.625-0.177,1.273-0.267,1.924-0.267C29.617,6.235,33.477,8.725,35.867,17.131z M74.609,34.41
	v-15h-9.5v15h-15v9.5h15v15h9.5v-15h15v-9.5H74.609z"/>
</svg>


<svg version="1.1" id="Layer_1" xmlns="http://www.w3.org/2000/svg" xmlns:xlink="http://www.w3.org/1999/xlink" x="0px" y="0px"
	 width="100px" height="100px" viewBox="0 0 100 100" enable-background="new 0 0 100 100" xml:space="preserve">
<path d="M11.627,23.462v53.925h81.351V23.462H11.627z M52.303,56.763L18.936,27.462h66.733L52.303,56.763z M39.011,50.415
	L15.627,70.95V29.88L39.011,50.415z M42.042,53.077l10.26,9.01l10.26-9.01l23.128,20.31H18.915L42.042,53.077z M65.593,50.416
	L88.978,29.88V70.95L65.593,50.416z"/>
</svg>

<svg version="1.1" id="Capa_1" xmlns="http://www.w3.org/2000/svg" xmlns:xlink="http://www.w3.org/1999/xlink" x="0px" y="0px"
	 width="16.002px" height="16px" viewBox="0 0 16.002 16" enable-background="new 0 0 16.002 16" xml:space="preserve">
<path d="M16.001,3.038c-0.589,0.261-1.221,0.438-1.885,0.517c0.678-0.406,1.197-1.05,1.443-1.815
	c-0.635,0.376-1.338,0.649-2.086,0.797C12.875,1.898,12.022,1.5,11.078,1.5c-1.813,0-3.283,1.47-3.283,3.282
	c0,0.257,0.029,0.508,0.085,0.748C5.152,5.393,2.733,4.086,1.114,2.1C0.831,2.584,0.67,3.148,0.67,3.75
	c0,1.139,0.58,2.144,1.46,2.732C1.592,6.464,1.086,6.316,0.643,6.07v0.041c0,1.59,1.132,2.917,2.633,3.219
	C3.001,9.404,2.711,9.445,2.411,9.445c-0.212,0-0.417-0.021-0.618-0.06c0.418,1.304,1.63,2.253,3.066,2.28
	c-1.123,0.88-2.539,1.404-4.077,1.404c-0.265,0-0.526-0.016-0.783-0.045C1.452,13.956,3.177,14.5,5.031,14.5
	c6.038,0,9.34-5.002,9.34-9.34L14.36,4.735C15.004,4.274,15.562,3.696,16.001,3.038z"/>
</svg>

<svg version="1.1" id="Layer_1" xmlns="http://www.w3.org/2000/svg" xmlns:xlink="http://www.w3.org/1999/xlink" x="0px" y="0px"
	 width="26px" height="26px" viewBox="0 0 26 26" enable-background="new 0 0 26 26" xml:space="preserve">
<rect fill="none" width="26" height="26"/>
<path fill="#000000" d="M20,7c-0.551,0-1-0.449-1-1V4c0-0.551,0.449-1,1-1h2c0.551,0,1,0.449,1,1v2c0,0.551-0.449,1-1,1H20z"/>
<path fill="#000000" d="M13,9.188c-0.726,0-1.396,0.213-1.973,0.563c0.18-0.056,0.367-0.093,0.564-0.093
	c1.068,0,1.933,0.865,1.933,1.934c0,1.066-0.865,1.933-1.933,1.933c-1.068,0-1.933-0.866-1.933-1.933
	c0-0.199,0.039-0.386,0.094-0.565C9.4,11.604,9.188,12.274,9.188,13c0,2.107,1.705,3.813,3.813,3.813
	c2.105,0,3.813-1.705,3.813-3.813S15.105,9.188,13,9.188z"/>
<g>
	<path fill="#000000" d="M13,7c3.313,0,6,2.686,6,6s-2.688,6-6,6c-3.313,0-6-2.686-6-6S9.687,7,13,7 M13,5c-4.411,0-8,3.589-8,8
		s3.589,8,8,8s8-3.589,8-8S17.411,5,13,5L13,5z"/>
</g>
<path fill="#000000" d="M21.125,0H4.875C2.182,0,0,2.182,0,4.875v16.25C0,23.818,2.182,26,4.875,26h16.25
	C23.818,26,26,23.818,26,21.125V4.875C26,2.182,23.818,0,21.125,0z M24,9h-6.537C18.416,10.063,19,11.461,19,13c0,3.314-2.688,6-6,6
	c-3.313,0-6-2.686-6-6c0-1.539,0.584-2.938,1.537-4H2V4.875C2,3.29,3.29,2,4.875,2h16.25C22.711,2,24,3.29,24,4.875V9z"/>
</svg>

