<?xml version="1.0" encoding="UTF-8" standalone="no"?>
<svg
   xmlns:dc="http://purl.org/dc/elements/1.1/"
   xmlns:cc="http://creativecommons.org/ns#"
   xmlns:rdf="http://www.w3.org/1999/02/22-rdf-syntax-ns#"
   xmlns:svg="http://www.w3.org/2000/svg"
   xmlns="http://www.w3.org/2000/svg"
   viewBox="0 0 802.5 722.5"
   height="722.5"
   width="802.5"
   xml:space="preserve"
   version="1.1"
   id="svg2"><metadata
     id="metadata8"><rdf:RDF><cc:Work
         rdf:about=""><dc:format>image/svg+xml</dc:format><dc:type
           rdf:resource="http://purl.org/dc/dcmitype/StillImage" /></cc:Work></rdf:RDF></metadata><defs
     id="defs6" /><g
     transform="matrix(1.25,0,0,-1.25,0,722.5)"
     id="g10"><g
       transform="scale(0.1,0.1)"
       id="g12"><path
         id="path14"
         style="fill:#cf282a;fill-opacity:1;fill-rule:nonzero;stroke:none"
         d="m 13.5977,5021.48 753.609,0 0,753.613 -753.609,0 0,-753.613 z" /><path
         id="path16"
         style="fill:#ffffff;fill-opacity:1;fill-rule:nonzero;stroke:none"
         d="m 337.926,5701.46 -34.321,0 -23.156,-89.01 -24.086,89.01 -35.734,0 c 7.148,-20.99 14.613,-42.12 21.766,-63.14 10.875,-31.62 17.679,-55.44 20.746,-71.72 l 0,-91.81 33.953,0 0,91.81 40.832,134.86 z m 90.73,-171.98 0,59.18 c 0,18.04 -3.097,31.23 -9.515,39.79 -8.481,11.53 -20.375,17.31 -35.707,17.31 -15.246,0 -27.184,-5.78 -35.645,-17.31 -6.519,-8.56 -9.586,-21.75 -9.586,-39.79 l 0,-59.18 c 0,-17.96 3.067,-31.26 9.586,-39.74 8.461,-11.51 20.399,-17.29 35.645,-17.29 15.332,0 27.226,5.78 35.707,17.29 6.418,8.48 9.515,21.78 9.515,39.74 z m -30.629,-5.77 c 0,-15.62 -4.726,-23.44 -14.593,-23.44 -9.883,0 -14.622,7.82 -14.622,23.44 l 0,71.08 c 0,15.63 4.739,23.41 14.622,23.41 9.867,0 14.593,-7.78 14.593,-23.41 l 0,-71.08 z m 143.828,-48.92 0,168.92 -30.617,0 0,-129.11 c -6.8,-9.58 -13.226,-14.33 -19.343,-14.33 -4.118,0 -6.504,2.42 -7.168,7.17 -0.379,0.99 -0.379,4.73 -0.379,11.92 l 0,124.35 -30.516,0 0,-133.57 c 0,-11.92 1.035,-20.01 2.727,-25.12 3.043,-8.56 9.843,-12.57 19.707,-12.57 11.16,0 22.777,6.79 34.972,20.77 l 0,-18.43 30.617,0" /><path
         id="path18"
         style="fill:#ffffff;fill-opacity:1;fill-rule:nonzero;stroke:none"
         d="m 641.008,5269.77 c 0,-39.07 -0.031,-80.53 -8.789,-118.48 -6.121,-26.64 -27.918,-46.29 -54.168,-49.24 -62.153,-6.94 -125.071,-6.98 -187.68,-6.94 -62.629,-0.04 -125.531,0 -187.68,6.94 -26.253,2.95 -48.05,22.6 -54.168,49.24 -8.722,37.95 -8.722,79.41 -8.722,118.48 0,39.12 0.086,80.5 8.828,118.5 6.117,26.63 27.914,46.3 54.164,49.22 62.152,6.96 125.059,6.97 187.68,6.96 62.609,0.01 125.527,0 187.679,-6.96 26.258,-2.92 48.055,-22.59 54.168,-49.22 8.727,-38 8.688,-79.38 8.688,-118.5" /><path
         id="path20"
         style="fill:#cf282a;fill-opacity:1;fill-rule:nonzero;stroke:none"
         d="m 282.766,5354.09 0,31.6 -105.625,0 0,-31.6 35.636,0 0,-192.75 33.684,0 0,192.75 36.305,0 z m 61.187,-192.75 0,18.23 c -12.019,-13.81 -23.461,-20.54 -34.601,-20.54 -9.766,0 -16.497,3.96 -19.508,12.44 -1.668,5.08 -2.68,13.04 -2.68,24.85 l 0,132.19 30.277,0 0,-123.08 c 0,-7.08 0,-10.8 0.278,-11.78 0.738,-4.69 3.035,-7.07 7.086,-7.07 6.074,0 12.457,4.69 19.148,14.16 l 0,127.77 30.328,0 0,-167.17 -30.328,0 z m 115.106,47.77 c 0,-15.1 -4.45,-22.53 -13.18,-22.53 -4.977,0 -10.039,2.38 -15.102,7.43 l 0,101.9 c 5.063,4.98 10.125,7.37 15.102,7.37 8.73,0 13.18,-7.75 13.18,-22.82 l 0,-71.35 z m 30.277,2.38 0,66.59 c 0,15.8 -1.035,26.88 -3.051,33.6 -4.043,12.52 -12.14,18.86 -24.215,18.86 -11.125,0 -21.5,-6.1 -31.293,-18.12 l 0,73.27 -30.281,0 0,-224.35 30.281,0 0,16.2 c 10.125,-12.52 20.516,-18.51 31.293,-18.51 12.075,0 20.172,6.35 24.215,18.79 2.016,7.07 3.051,18.22 3.051,33.67 z m 84.031,53.13 -30.269,0 0,15.45 c 0,15.46 5.066,23.21 15.195,23.21 10.004,0 15.074,-7.75 15.074,-23.21 l 0,-15.45 z m 30.305,-49.8 0,4.41 -30.93,0 c 0,-12.16 -0.363,-18.84 -0.64,-20.5 -1.747,-8.09 -6.106,-12.15 -13.551,-12.15 -10.387,0 -15.453,7.71 -15.453,23.19 l 0,29.62 60.574,0 0,34.62 c 0,17.88 -3.051,30.95 -9.395,39.39 -8.48,11.46 -20.531,17.14 -35.726,17.14 -15.453,0 -27.543,-5.68 -36.27,-17.14 -6.453,-8.44 -9.359,-21.51 -9.359,-39.39 l 0,-58.56 c 0,-17.72 3.293,-30.94 9.723,-39.28 8.742,-11.43 20.796,-17.14 36.675,-17.14 15.809,0 28.231,5.99 36.625,18.12 3.66,5.36 6.035,11.46 7.059,18.15 0.281,3.05 0.668,9.78 0.668,19.52" /><path
         id="path22"
         style="fill:#eb2a8a;fill-opacity:1;fill-rule:nonzero;stroke:none"
         d="m 944.773,5017.45 753.609,0 0,753.617 -753.609,0 0,-753.617 z" /><path
         id="path24"
         style="fill:#ffffff;fill-opacity:1;fill-rule:nonzero;stroke:none"
         d="m 1321.58,5076.23 c -170.42,0 -309.06,138.67 -309.06,309.08 0,170.4 138.64,309.05 309.06,309.05 170.42,0 309.06,-138.65 309.06,-309.05 0,-170.41 -138.64,-309.08 -309.06,-309.08 z m 260.65,266.76 c -9.02,2.87 -81.71,24.53 -164.43,11.28 34.53,-94.86 48.59,-172.14 51.27,-188.22 59.22,40.05 101.38,103.48 113.16,176.94 z M 1424.7,5141.9 c -3.94,23.16 -19.26,103.87 -56.33,200.17 l -1.74,-0.59 c -148.89,-51.87 -202.33,-155.14 -207.09,-164.85 44.74,-34.91 101.01,-55.73 162.04,-55.73 36.55,0 71.42,7.47 103.12,21 z m -299.25,66.48 c 5.98,10.23 78.43,130.19 214.59,174.2 3.42,1.14 6.91,2.17 10.39,3.15 -6.63,15 -13.85,30.02 -21.4,44.8 -131.82,-39.46 -259.75,-37.81 -271.3,-37.56 -0.07,-2.7 -0.15,-5.36 -0.15,-8.08 0,-67.8 25.7,-129.69 67.87,-176.51 z m -62.29,230.58 c 11.8,-0.16 120.57,-0.63 244.05,32.16 -43.73,77.77 -90.91,143.14 -97.89,152.67 -73.83,-34.81 -129.04,-102.91 -146.16,-184.83 z m 196.55,202.58 c 7.3,-9.75 55.25,-75.06 98.49,-154.52 93.89,35.16 133.62,88.59 138.38,95.35 -46.61,41.35 -107.92,66.52 -175,66.52 -21.3,0 -42.02,-2.54 -61.87,-7.35 z m 266.22,-89.71 c -5.57,-7.52 -49.82,-64.24 -147.41,-104.07 6.12,-12.6 12.01,-25.37 17.52,-38.25 1.92,-4.55 3.82,-9.1 5.67,-13.63 87.84,11.06 175.11,-6.66 183.83,-8.49 -0.59,62.32 -22.85,119.53 -59.61,164.44" /><path
         id="path26"
         style="fill:#ee6f21;fill-opacity:1;fill-rule:nonzero;stroke:none"
         d="m 1884,5021.48 753.609,0 0,753.609 -753.609,0 0,-753.609 z" /><path
         id="path28"
         style="fill:#ffffff;fill-opacity:1;fill-rule:nonzero;stroke:none"
         d="m 2034.96,5231.81 c 39.09,0 70.77,-31.72 70.77,-70.79 0,-39.12 -31.68,-70.78 -70.77,-70.78 -39.1,0 -70.78,31.66 -70.78,70.78 0,39.07 31.68,70.79 70.78,70.79" /><path
         id="path30"
         style="fill:#ffffff;fill-opacity:1;fill-rule:nonzero;stroke:none"
         d="m 1964.26,5339.46 c 66.34,0 128.67,-25.95 175.56,-73.01 46.92,-47.16 72.73,-109.93 72.73,-176.76 l 102.18,0 c 0,194.08 -157.21,351.99 -350.47,351.99 l 0,-102.22" /><path
         id="path32"
         style="fill:#ffffff;fill-opacity:1;fill-rule:nonzero;stroke:none"
         d="m 1964.39,5520.64 c 236.37,0 428.71,-193.39 428.71,-431.03 l 102.16,0 c 0,294.03 -238.13,533.23 -530.87,533.23 l 0,-102.2" /><path
         id="path34"
         style="fill:#ce2a2f;fill-opacity:1;fill-rule:nonzero;stroke:none"
         d="m 2828.29,5021.48 753.609,0 0,753.609 -753.609,0 0,-753.609 z" /><path
         id="path36"
         style="fill:#ffffff;fill-opacity:1;fill-rule:nonzero;stroke:none"
         d="m 3193.09,5656.99 c 4.73,-2.92 10.02,-7.19 15.91,-12.81 5.64,-5.86 11.18,-13.09 16.6,-21.61 5.19,-8.05 9.79,-17.55 13.81,-28.55 3.3,-10.98 4.95,-23.81 4.95,-38.45 -0.43,-26.85 -6.37,-48.33 -17.8,-64.45 -5.58,-7.81 -11.5,-15.01 -17.76,-21.6 -6.95,-6.57 -14.31,-13.31 -22.12,-20.13 -4.49,-4.64 -8.61,-9.89 -12.41,-15.76 -4.47,-6.1 -6.71,-13.16 -6.71,-21.22 0,-7.86 2.3,-14.3 6.88,-19.42 3.89,-4.89 7.68,-9.17 11.36,-12.82 l 25.47,-20.87 c 15.82,-12.97 29.7,-27.19 41.62,-42.82 11.23,-15.89 17.08,-36.62 17.58,-62.24 0,-36.38 -16.08,-68.58 -48.2,-96.7 -33.27,-29.05 -81.36,-44.04 -144.17,-45.03 -52.58,0.49 -91.83,11.7 -117.77,33.6 -26.14,20.49 -39.24,44.97 -39.24,73.48 0,13.87 4.23,29.37 12.79,46.43 8.23,17.03 23.19,32.02 44.85,44.93 24.29,13.86 49.83,23.15 76.6,27.78 26.51,3.88 48.5,6.09 66.02,6.57 -5.42,7.13 -10.24,14.73 -14.47,22.83 -4.95,7.85 -7.4,17.32 -7.4,28.33 0,6.63 0.93,12.18 2.81,16.58 1.65,4.68 3.19,8.94 4.59,12.88 -8.52,-0.96 -16.58,-1.46 -24.11,-1.46 -39.98,0.5 -70.43,13.08 -91.38,37.71 -21.96,22.97 -32.93,49.7 -32.93,80.19 0,36.88 15.52,70.3 46.63,100.34 21.33,17.55 43.5,29 66.5,34.41 22.77,4.64 44.12,6.95 64.02,6.95 l 150.11,0 -46.36,-27.07 -46.27,0 z m 28.98,-432.09 c 0,19.06 -6.21,35.64 -18.62,49.79 -13.16,13.43 -33.7,29.9 -61.67,49.46 -4.8,0.49 -10.41,0.73 -16.86,0.73 -3.81,0.46 -13.63,0 -29.4,-1.46 -15.52,-2.21 -31.43,-5.74 -47.69,-10.63 -3.83,-1.47 -9.19,-3.67 -16.11,-6.6 -6.93,-3.17 -13.98,-7.69 -21.17,-13.55 -6.94,-6.1 -12.78,-13.66 -17.55,-22.71 -5.52,-9.53 -8.24,-21.01 -8.24,-34.43 0,-26.37 11.92,-48.1 35.81,-65.18 22.73,-17.09 53.79,-25.87 93.23,-26.38 35.38,0.51 62.4,8.32 81.01,23.45 18.18,14.91 27.26,34.06 27.26,57.51 z m -104.65,220.03 c 19.77,0.74 36.23,7.86 49.4,21.31 6.36,9.53 10.45,19.31 12.25,29.35 1.09,10.04 1.65,18.45 1.65,25.32 0,29.58 -7.58,59.44 -22.71,89.5 -7.12,14.43 -16.46,26.18 -28.04,35.23 -11.85,8.52 -25.44,13.07 -40.81,13.56 -20.35,-0.49 -37.25,-8.69 -50.75,-24.59 -11.37,-16.63 -16.81,-35.22 -16.29,-55.77 0,-27.14 7.92,-55.37 23.81,-84.74 7.71,-13.69 17.6,-25.3 29.79,-34.84 12.16,-9.56 26.06,-14.33 41.7,-14.33" /><path
         id="path38"
         style="fill:#ffffff;fill-opacity:1;fill-rule:nonzero;stroke:none"
         d="m 3489.09,5602.07 -78.76,0 0,78.79 -38.16,0 0,-78.79 -78.75,0 0,-38.16 78.75,0 0,-78.75 38.16,0 0,78.75 78.76,0 0,38.16" /><path
         id="path40"
         style="fill:#39b97f;fill-opacity:1;fill-rule:nonzero;stroke:none"
         d="m 3760,5010 750,0 0,750 -750,0 0,-750 z" /><path
         id="path42"
         style="fill:#ffffff;fill-opacity:1;fill-rule:nonzero;stroke:none"
         d="m 4213.11,5517.91 c 0,34.87 68.6,52.93 68.6,-6.03 -0.21,-32.36 -4.57,-62.24 -11.54,-89.61 l 71.31,0 c 5.45,33.02 5.21,65.66 5.21,104.09 0,108.26 -199.73,126.31 -199.73,-10.88 0,-96.33 45.38,-147.01 92.84,-173.7 -39.55,-77.6 -92.84,-119.89 -92.84,-119.89 -149.19,121.54 -134.74,327.31 -134.74,327.31 l -64.99,0 c 1.23,-277.97 148.02,-375.42 166.07,-389.89 18.05,-14.44 21.65,-13.24 43.33,-12.02 21.62,1.21 70.93,50.56 131.12,144.37 5.79,9.08 11,17.77 15.73,26.22 25.18,-5.64 43.21,-5.75 43.21,-5.75 l 0,58.97 c -126.37,12.04 -133.58,120.33 -133.58,146.81" /><path
         id="path44"
         style="fill:#26447c;fill-opacity:1;fill-rule:nonzero;stroke:none"
         d="m 4690,5020 780,0 0,750 -780,0 0,-750 z" /><path
         id="path46"
         style="fill:#ffffff;fill-opacity:1;fill-rule:nonzero;stroke:none"
         d="m 5291.61,5541.34 c 18.11,-33.2 12.13,-72.36 5,-95.5 -38.58,-126.03 -212.68,-119.18 -237.87,-119.18 -25.15,0 -31.01,-23.45 -31.01,-23.45 l -18.81,-82.07 c -5.13,-28.8 -31.25,-27.37 -31.25,-27.37 0,0 -33.96,0 -56.67,0 -1.43,0 -2.76,0.1 -3.98,0.28 -0.28,-5.28 0.47,-20.69 19.33,-20.69 22.69,0 56.65,0 56.65,0 0,0 26.12,-1.47 31.27,27.34 l 18.79,82.05 c 0,0 5.88,23.46 31.03,23.46 25.15,0 199.29,-6.85 237.89,119.19 8.62,28.17 15.62,79.93 -20.37,115.94" /><path
         id="path48"
         style="fill:#ffffff;fill-opacity:1;fill-rule:nonzero;stroke:none"
         d="m 4991.42,5239.04 18.81,82.06 c 0,0 5.83,23.42 31.03,23.42 25.13,0 199.27,-6.82 237.85,119.19 14.12,46.06 23.93,155.36 -151.89,155.36 l -126.99,0 c 0,0 -26.4,1.22 -32.92,-26.84 l -82.97,-358.12 c 0,0 -3.57,-22.44 19.14,-22.44 22.72,0 56.69,0 56.69,0 0,0 26.12,-1.47 31.25,27.37 z m 47.86,208.31 16.86,72.77 c 0,0 5.38,19.79 22.73,22.72 17.33,2.94 46.86,-0.53 54.46,-1.96 49.31,-9.26 38.83,-55.92 38.83,-55.92 -9.77,-72.03 -121.89,-62.04 -121.89,-62.04 -17.57,6.36 -10.99,24.43 -10.99,24.43" /><path
         id="path50"
         style="fill:#f79811;fill-opacity:1;fill-rule:nonzero;stroke:none"
         d="m 5650,5010 750,0 0,750 -750,0 0,-750 z" /><path
         id="path52"
         style="fill:#ffffff;fill-opacity:1;fill-rule:nonzero;stroke:none"
         d="m 5791.79,5270.32 c 1.14,0 2.1,0.94 2.27,2.26 l 6.21,49.23 -6.19,50.35 c -0.19,1.32 -1.15,2.27 -2.29,2.27 -1.17,0 -2.17,-0.97 -2.33,-2.27 l -5.42,-50.35 5.42,-49.21 c 0.16,-1.32 1.16,-2.28 2.33,-2.28" /><path
         id="path54"
         style="fill:#ffffff;fill-opacity:1;fill-rule:nonzero;stroke:none"
         d="m 5771.31,5289.04 c 1.12,0 2.03,0.88 2.2,2.18 l 4.81,30.59 -4.81,31.16 c -0.17,1.27 -1.08,2.18 -2.2,2.18 -1.17,0 -2.08,-0.91 -2.25,-2.2 l -4.02,-31.14 4.02,-30.58 c 0.17,-1.29 1.08,-2.19 2.25,-2.19" /><path
         id="path56"
         style="fill:#ffffff;fill-opacity:1;fill-rule:nonzero;stroke:none"
         d="m 5816.28,5381.53 c -0.15,1.6 -1.32,2.77 -2.77,2.77 -1.45,0 -2.62,-1.17 -2.76,-2.77 l -5.18,-59.72 5.18,-57.54 c 0.14,-1.59 1.31,-2.74 2.76,-2.74 1.45,0 2.62,1.15 2.77,2.74 l 5.87,57.54 -5.87,59.72" /><path
         id="path58"
         style="fill:#ffffff;fill-opacity:1;fill-rule:nonzero;stroke:none"
         d="m 5835.46,5259.21 c 1.7,0 3.08,1.4 3.24,3.23 l 5.55,59.35 -5.55,61.39 c -0.16,1.84 -1.54,3.23 -3.24,3.23 -1.73,0 -3.12,-1.39 -3.24,-3.24 l -4.91,-61.38 4.91,-59.35 c 0.12,-1.83 1.51,-3.23 3.24,-3.23" /><path
         id="path60"
         style="fill:#ffffff;fill-opacity:1;fill-rule:nonzero;stroke:none"
         d="m 5857.56,5258.25 c 1.98,0 3.57,1.59 3.74,3.71 l -0.02,-0.02 5.22,59.85 -5.22,56.96 c -0.15,2.09 -1.74,3.7 -3.72,3.7 -2.01,0 -3.6,-1.61 -3.71,-3.72 l -4.62,-56.94 4.62,-59.83 c 0.11,-2.12 1.7,-3.71 3.71,-3.71" /><path
         id="path62"
         style="fill:#ffffff;fill-opacity:1;fill-rule:nonzero;stroke:none"
         d="m 5888.95,5321.78 -4.91,92.6 c -0.13,2.35 -1.96,4.22 -4.2,4.22 -2.23,0 -4.06,-1.87 -4.2,-4.22 l -4.33,-92.6 4.33,-59.84 c 0.14,-2.35 1.97,-4.2 4.2,-4.2 2.24,0 4.07,1.85 4.2,4.2 l 0,-0.01 4.91,59.85" /><path
         id="path64"
         style="fill:#ffffff;fill-opacity:1;fill-rule:nonzero;stroke:none"
         d="m 5902.34,5257.64 c 2.46,0 4.52,2.05 4.63,4.67 l 0,-0.04 4.58,59.49 -4.58,113.8 c -0.11,2.62 -2.17,4.67 -4.63,4.67 -2.54,0 -4.57,-2.05 -4.7,-4.67 l -4.03,-113.8 4.05,-59.47 c 0.11,-2.6 2.14,-4.65 4.68,-4.65" /><path
         id="path66"
         style="fill:#ffffff;fill-opacity:1;fill-rule:nonzero;stroke:none"
         d="m 5924.96,5450.21 c -2.78,0 -5.03,-2.29 -5.15,-5.17 l -3.75,-123.3 3.75,-58.85 c 0.12,-2.86 2.37,-5.13 5.15,-5.13 2.77,0 5.04,2.25 5.14,5.15 l 0,-0.03 4.26,58.86 -4.26,123.3 c -0.1,2.9 -2.37,5.17 -5.14,5.17" /><path
         id="path68"
         style="fill:#ffffff;fill-opacity:1;fill-rule:nonzero;stroke:none"
         d="m 5947.79,5257.64 c 3.05,0 5.48,2.47 5.6,5.64 l 0,-0.03 3.93,58.49 -3.93,127.44 c -0.12,3.16 -2.55,5.64 -5.6,5.64 -3.08,0 -5.56,-2.48 -5.6,-5.64 l -3.54,-127.44 3.54,-58.49 c 0.04,-3.14 2.52,-5.61 5.6,-5.61" /><path
         id="path70"
         style="fill:#ffffff;fill-opacity:1;fill-rule:nonzero;stroke:none"
         d="m 5970.79,5257.7 c 3.3,0 5.98,2.7 6.08,6.12 l 0,-0.05 3.62,57.96 -3.62,124.2 c -0.1,3.42 -2.78,6.11 -6.08,6.11 -3.32,0 -5.99,-2.69 -6.09,-6.11 l -3.18,-124.2 3.2,-57.93 c 0.08,-3.4 2.75,-6.1 6.07,-6.1" /><path
         id="path72"
         style="fill:#ffffff;fill-opacity:1;fill-rule:nonzero;stroke:none"
         d="m 6003.8,5321.73 -3.28,119.67 c -0.08,3.69 -2.97,6.59 -6.56,6.59 -3.59,0 -6.48,-2.9 -6.56,-6.61 l -2.94,-119.65 2.94,-57.58 c 0.08,-3.66 2.97,-6.56 6.56,-6.56 3.59,0 6.48,2.9 6.56,6.61 l 0,-0.05 3.28,57.58" /><path
         id="path74"
         style="fill:#ffffff;fill-opacity:1;fill-rule:nonzero;stroke:none"
         d="m 6017.31,5257.48 c 3.81,0 6.97,3.17 7.03,7.07 l 0,-0.03 2.97,57.18 -2.97,142.41 c -0.06,3.91 -3.22,7.07 -7.03,7.07 -3.8,0 -6.95,-3.18 -7.02,-7.09 l -2.65,-142.33 2.65,-57.24 c 0.07,-3.87 3.22,-7.04 7.02,-7.04" /><path
         id="path76"
         style="fill:#ffffff;fill-opacity:1;fill-rule:nonzero;stroke:none"
         d="m 6040.59,5484.57 c -4.11,0 -7.45,-3.41 -7.52,-7.57 l -3.08,-155.32 3.1,-56.34 c 0.05,-4.11 3.39,-7.51 7.5,-7.51 4.05,0 7.45,3.4 7.47,7.58 l 0,-0.07 3.36,56.34 -3.36,155.32 c -0.02,4.18 -3.42,7.57 -7.47,7.57" /><path
         id="path78"
         style="fill:#ffffff;fill-opacity:1;fill-rule:nonzero;stroke:none"
         d="m 6061.87,5257.43 c 0.16,-0.02 187.56,-0.11 188.77,-0.11 37.62,0 68.11,30.87 68.11,68.95 0,38.07 -30.49,68.94 -68.11,68.94 -9.34,0 -18.24,-1.91 -26.35,-5.37 -5.4,62.15 -56.88,110.89 -119.68,110.89 -15.35,0 -30.32,-3.07 -43.55,-8.25 -5.14,-2.01 -6.52,-4.09 -6.56,-8.1 l 0,-218.79 c 0.06,-4.23 3.29,-7.74 7.37,-8.16" /><path
         id="path80"
         style="fill:#6bbf2f;fill-opacity:1;fill-rule:nonzero;stroke:none"
         d="m 0,4080 750,0 0,750 -750,0 0,-750 z" /><path
         id="path82"
         style="fill:#ffffff;fill-opacity:1;fill-rule:nonzero;stroke:none"
         d="m 633.066,4468.04 c 0,132.87 -107.773,240.61 -240.707,240.61 -132.941,0 -240.699,-107.74 -240.699,-240.61 0,-63.5 24.805,-121.08 65,-164.08 15.899,18.78 35.039,33.97 56.969,45.08 25.797,13.07 53.559,19.69 82.559,19.69 46.046,0 90.05,-17.19 123.917,-48.41 17.098,-15.77 30.829,-34.4 40.918,-55.4 67.27,42.68 112.043,117.59 112.043,203.12 z m -126.722,-93.43 c -3.129,-4.49 -8.137,-6.9 -13.219,-6.9 -3.145,0 -6.332,0.93 -9.121,2.85 -37.695,26.14 -81.895,39.93 -127.816,39.93 -26.583,0 -52.571,-4.57 -77.282,-13.63 -8.316,-3.05 -17.543,1.23 -20.586,9.54 -3.047,8.33 1.223,17.54 9.547,20.58 28.25,10.34 57.961,15.61 88.321,15.61 52.503,0 103.015,-15.79 146.101,-45.68 7.277,-5.03 9.09,-15.03 4.055,-22.3 z m 35,73.97 c -3.43,-5.47 -9.317,-8.48 -15.328,-8.48 -3.262,0 -6.582,0.87 -9.563,2.74 -48,30 -103.422,45.85 -160.265,45.85 -31.602,0 -62.743,-4.86 -92.626,-14.43 -9.468,-3.05 -19.644,2.18 -22.683,11.67 -3.063,9.5 2.172,19.65 11.676,22.71 33.414,10.71 68.3,16.14 103.633,16.14 63.613,0 125.652,-17.75 179.402,-51.33 8.465,-5.29 11.031,-16.42 5.754,-24.87 z m 7.527,66.94 c -58.207,34.19 -124.844,52.25 -192.683,52.25 -36.668,0 -72.965,-5.22 -107.895,-15.5 -10.625,-3.13 -21.777,2.94 -24.91,13.57 -3.129,10.62 2.961,21.76 13.582,24.91 38.621,11.35 78.711,17.11 119.223,17.11 74.968,0 148.636,-19.96 213.023,-57.74 9.535,-5.63 12.727,-17.91 7.129,-27.45 -3.746,-6.36 -10.442,-9.91 -17.332,-9.91 -3.442,0 -6.934,0.89 -10.137,2.76" /><path
         id="path84"
         style="fill:#ffffff;fill-opacity:1;fill-rule:nonzero;stroke:none"
         d="m 356.188,4283.85 c -15.52,0 -30.391,-3.54 -44.18,-10.53 -10.207,-5.19 -19.313,-12.03 -27.121,-20.36 32.383,-16.19 68.801,-25.52 107.472,-25.52 17.094,0 33.762,1.84 49.848,5.21 -5.141,9.47 -11.715,17.94 -19.668,25.26 -18.144,16.73 -41.711,25.94 -66.351,25.94" /><path
         id="path86"
         style="fill:#3f4d69;fill-opacity:1;fill-rule:nonzero;stroke:none"
         d="m 940,4080 750,0 0,750 -750,0 0,-750 z" /><path
         id="path88"
         style="fill:#f1f3f7;fill-opacity:1;fill-rule:nonzero;stroke:none"
         d="m 1342.71,4708.41 0,-124.41 116.79,0 0,-77.28 -116.79,0 0,-126.26 c 0,-28.53 1.49,-46.84 4.51,-54.94 3.04,-8.08 8.62,-14.54 16.88,-19.4 10.9,-6.55 23.33,-9.83 37.36,-9.83 24.92,0 49.7,8.16 74.34,24.33 l 0,-77.63 c -21.02,-9.93 -40.08,-16.88 -57.13,-20.87 -17.03,-3.98 -35.49,-5.97 -55.31,-5.97 -22.48,0 -42.35,2.83 -59.66,8.53 -17.31,5.7 -32.05,13.8 -44.27,24.29 -12.2,10.52 -20.67,21.71 -25.39,33.59 -4.7,11.81 -7.06,28.98 -7.06,51.48 l 0,172.68 -54.42,0 0,69.68 c 19.34,6.26 35.93,15.28 49.67,26.98 13.82,11.75 24.88,25.83 33.2,42.28 8.36,16.45 14.1,37.34 17.25,62.75 l 70.03,0" /><path
         id="path90"
         style="fill:#39629f;fill-opacity:1;fill-rule:nonzero;stroke:none"
         d="m 1884,4085.47 753.609,0 0,753.613 -753.609,0 0,-753.613 z" /><path
         id="path92"
         style="fill:#211c1d;fill-opacity:1;fill-rule:nonzero;stroke:none"
         d="m 1884,4085.47 0,-0.75 754.36,0 0,755.12 -755.11,0 0,-755.12 0.75,0 0,0.75 0.76,0 0,752.87 752.1,0 0,-752.11 -752.86,0 0,-0.76 0.76,0 -0.76,0" /><path
         id="path94"
         style="fill:#ffffff;fill-opacity:1;fill-rule:nonzero;stroke:none"
         d="m 2076.37,4710.43 368.91,0 c 35.05,0 63.7,-28.66 63.7,-63.71 l 0,-368.91 c 0,-35.04 -28.65,-63.69 -63.7,-63.69 l -368.91,0 c -35.05,0 -63.73,28.65 -63.73,63.69 l 0,368.91 c 0,35.05 28.68,63.71 63.73,63.71 z m 297.85,-55.12 c -12.31,0 -22.35,-10.08 -22.35,-22.38 l 0,-53.46 c 0,-12.3 10.04,-22.36 22.35,-22.36 l 56.1,0 c 12.28,0 22.34,10.06 22.34,22.36 l 0,53.46 c 0,12.3 -10.06,22.38 -22.34,22.38 l -56.1,0 z m 78.65,-154.76 -43.67,0 c 4.14,-13.52 6.38,-27.78 6.38,-42.62 0,-82.52 -69.09,-149.46 -154.3,-149.46 -85.19,0 -154.29,66.94 -154.29,149.46 0,14.84 2.26,29.1 6.39,42.62 l -45.56,0 0,-209.67 c 0,-10.86 8.86,-19.7 19.71,-19.7 l 345.63,0 c 10.86,0 19.71,8.84 19.71,19.7 l 0,209.67 z m -191.59,59.38 c -55.03,0 -99.67,-43.23 -99.67,-96.6 0,-53.32 44.64,-96.58 99.67,-96.58 55.06,0 99.69,43.26 99.69,96.58 0,53.37 -44.63,96.6 -99.69,96.6" /><path
         id="path96"
         style="fill:#cc1e27;fill-opacity:1;fill-rule:nonzero;stroke:none"
         d="m 2828.29,4085.47 753.609,0 0,753.613 -753.609,0 0,-753.613 z" /><path
         id="path98"
         style="fill:#ffffff;fill-opacity:1;fill-rule:nonzero;stroke:none"
         d="m 3205.09,4734.86 c -150.52,0 -272.57,-122.02 -272.57,-272.58 0,-111.61 67.1,-207.5 163.16,-249.65 -0.77,19.06 -0.14,41.9 4.73,62.58 5.26,22.16 35.08,148.56 35.08,148.56 0,0 -8.72,17.38 -8.72,43.11 0,40.36 23.44,70.54 52.6,70.54 24.77,0 36.75,-18.61 36.75,-40.9 0,-24.92 -15.9,-62.2 -24.06,-96.72 -6.83,-28.92 14.51,-52.5 42.98,-52.5 51.66,0 86.44,66.31 86.44,144.91 0,59.72 -40.23,104.43 -113.41,104.43 -82.67,0 -134.19,-61.64 -134.19,-130.5 0,-23.76 7.01,-40.52 17.98,-53.48 5.05,-5.96 5.75,-8.34 3.89,-15.18 -1.26,-5.04 -4.27,-17.09 -5.54,-21.86 -1.82,-6.95 -7.39,-9.39 -13.63,-6.84 -38.09,15.53 -55.82,57.24 -55.82,104.12 0,77.42 65.28,170.28 194.81,170.28 104.05,0 172.57,-75.3 172.57,-156.15 0,-106.93 -59.48,-186.8 -147.09,-186.8 -29.45,0 -57.12,15.92 -66.58,33.96 0,0 -15.85,-62.8 -19.17,-74.93 -5.79,-20.98 -17.11,-42.01 -27.45,-58.38 24.5,-7.22 50.4,-11.17 77.24,-11.17 150.52,0 272.55,122.02 272.55,272.57 0,150.56 -122.03,272.58 -272.55,272.58" /><path
         id="path100"
         style="fill:#3d529e;fill-opacity:1;fill-rule:nonzero;stroke:none"
         d="m 3760,4080 750,0 0,750 -750,0 0,-750 z" /><path
         id="path102"
         style="fill:#ffffff;fill-opacity:1;fill-rule:nonzero;stroke:none"
         d="m 4414.09,4381.04 14.8,114.8 -113.68,0 0,73.29 c 0,33.24 9.27,55.89 56.93,55.89 l 60.74,0.03 0,102.68 c -10.49,1.39 -46.54,4.52 -88.56,4.52 -87.66,0 -147.63,-53.51 -147.63,-151.76 l 0,-84.65 -99.14,0 0,-114.8 99.14,0 0,-294.56 118.52,0 0,294.56 98.88,0" /><path
         id="path104"
         style="fill:#edecec;fill-opacity:1;fill-rule:nonzero;stroke:none"
         d="m 5650,4080 750,0 0,750 -750,0 0,-750 z" /><path
         id="path106"
         style="fill:#3e5fb5;fill-opacity:1;fill-rule:nonzero;stroke:none"
         d="m 6031.05,4455.66 c 0,-54.39 -44.11,-98.53 -98.49,-98.53 -54.44,0 -98.56,44.14 -98.56,98.53 0,54.41 44.12,98.53 98.56,98.53 54.38,0 98.49,-44.12 98.49,-98.53" /><path
         id="path108"
         style="fill:#ed0b85;fill-opacity:1;fill-rule:nonzero;stroke:none"
         d="m 6263.69,4455.66 c 0,-54.39 -44.1,-98.53 -98.51,-98.53 -54.41,0 -98.54,44.14 -98.54,98.53 0,54.41 44.13,98.53 98.54,98.53 54.41,0 98.51,-44.12 98.51,-98.53" /><path
         id="path110"
         style="fill:#5a96d6;fill-opacity:1;fill-rule:nonzero;stroke:none"
         d="m 0,3140 770,0 0,760 -770,0 0,-760 z" /><path
         id="path112"
         style="fill:#ffffff;fill-opacity:1;fill-rule:nonzero;stroke:none"
         d="m 396.379,3264.18 -168.645,103.85 0,31.83 56.657,-30.64 111.972,92.03 0,-197.07 0.016,0 z m -278.359,220.66 101.468,86.14 165.2,-100.3 -97.918,-84.98 -168.75,99.14 z m 102.656,103.84 -110.942,90.87 175.84,108.56 110.789,-92.04 -175.687,-107.39 z m 358.469,-220.65 -168.61,-103.85 0,197.07 111.988,-92.03 56.622,30.64 0,-31.83 z m -58.965,17.67 -97.969,84.98 165.184,100.3 101.496,-86.14 -168.711,-99.14 z m 66.054,202.98 -175.699,107.39 110.797,92 175.809,-108.53 -110.907,-90.86" /><path
         id="path114"
         style="fill:#475d4c;fill-opacity:1;fill-rule:nonzero;stroke:none"
         d="m 940,3140 750,0 0,760 -750,0 0,-760 z" /><path
         id="path116"
         style="fill:#ffffff;fill-opacity:1;fill-rule:nonzero;stroke:none"
         d="m 1251.7,3457.21 0,91.25 c -62.52,-17.32 -85.61,-55.1 -92.39,-91.25 l 92.39,0 z m 74.16,191.52 0,-49.42 c 2.72,0.03 5.5,0.06 8.23,0.06 76.25,0 145.26,-18.9 195.22,-49.46 49.93,-30.58 80.85,-72.84 80.85,-119.48 0,-9.41 -1.27,-18.65 -3.68,-27.66 l -264.1,0 0,138.84 c 30.22,-0.57 54.55,-4.29 74.15,-10.22 l 0,-74.18 92.36,0 c -9.18,48.98 -48.34,100.94 -174.77,100.94 -2.76,0 -5.54,-0.03 -8.24,-0.06 l 0,-155.28 -264.18,0 c -2.4,9.01 -3.67,18.24 -3.67,27.66 0,46.62 30.92,88.86 80.85,119.44 31.15,19.07 69.7,33.57 112.82,41.8 l 0,50.25 c 23.9,4.07 48.75,6.4 74.16,6.77" /><path
         id="path118"
         style="fill:#3479bc;fill-opacity:1;fill-rule:nonzero;stroke:none"
         d="m 1884,3148.96 753.609,0 0,753.598 -753.609,0 0,-753.598 z" /><path
         id="path120"
         style="fill:#ffffff;fill-opacity:1;fill-rule:nonzero;stroke:none"
         d="m 2012.95,3611.64 106.33,0 0,-341.58 -106.33,0 0,341.58 z m 53.2,169.81 c 33.99,0 61.56,-27.6 61.56,-61.54 0,-33.98 -27.57,-61.57 -61.56,-61.57 -34.11,0 -61.62,27.59 -61.62,61.57 0,33.94 27.51,61.54 61.62,61.54" /><path
         id="path122"
         style="fill:#ffffff;fill-opacity:1;fill-rule:nonzero;stroke:none"
         d="m 2185.94,3611.64 101.83,0 0,-46.68 1.44,0 c 14.16,26.87 48.84,55.17 100.52,55.17 107.48,0 127.36,-70.71 127.36,-162.71 l 0,-187.36 -106.13,0 0,166.07 c 0,39.65 -0.78,90.61 -55.21,90.61 -55.29,0 -63.71,-43.15 -63.71,-87.68 l 0,-169 -106.1,0 0,341.58" /><path
         id="path124"
         style="fill:#50abe4;fill-opacity:1;fill-rule:nonzero;stroke:none"
         d="m 2828.27,3148.95 753.609,0 0,753.617 -753.609,0 0,-753.617 z" /><path
         id="path126"
         style="fill:#ffffff;fill-opacity:1;fill-rule:nonzero;stroke:none"
         d="m 3456.26,3681.57 c -18.49,-8.21 -38.36,-13.75 -59.2,-16.23 21.28,12.76 37.65,32.94 45.32,57.02 -19.89,-11.81 -41.94,-20.4 -65.43,-25.02 -18.81,20.04 -45.61,32.55 -75.25,32.55 -56.93,0 -103.08,-46.16 -103.08,-103.07 0,-8.09 0.92,-15.94 2.67,-23.48 -85.66,4.28 -161.6,45.31 -212.45,107.7 -8.86,-15.25 -13.95,-32.94 -13.95,-51.84 0,-35.74 18.19,-67.31 45.84,-85.78 -16.89,0.52 -32.78,5.19 -46.68,12.89 l 0,-1.29 c 0,-49.94 35.54,-91.6 82.67,-101.07 -8.63,-2.35 -17.76,-3.64 -27.15,-3.64 -6.63,0 -13.11,0.67 -19.39,1.88 13.11,-40.96 51.17,-70.74 96.27,-71.6 -35.25,-27.64 -79.69,-44.13 -128.02,-44.13 -8.3,0 -16.5,0.51 -24.56,1.45 45.61,-29.22 99.79,-46.29 158.02,-46.29 189.57,0 293.25,157.03 293.25,293.26 0,4.44 -0.12,8.89 -0.28,13.35 20.09,14.5 37.55,32.66 51.4,53.34" /><path
         id="path128"
         style="fill:#100f0d;fill-opacity:1;fill-rule:nonzero;stroke:none"
         d="m 3760,3140 750,0 0,760 -750,0 0,-760 z" /><path
         id="path130"
         style="fill:#ffffff;fill-opacity:1;fill-rule:nonzero;stroke:none"
         d="m 4101.07,3551.76 c 0,0 47.88,3.58 47.88,59.74 0,56.14 -39.18,83.52 -88.81,83.52 l -163.28,0 0,-313.81 163.3,0 c 0,0 99.7,-3.12 99.7,92.64 0,0 4.32,77.91 -58.79,77.91 z m -52.66,87.51 11.73,0 c 0,0 22.2,0 22.2,-32.66 0,-32.63 -13.06,-37.37 -27.87,-37.37 l -85.65,0 0,70.03 79.59,0 z m 7.15,-202.3 -86.74,0 0,83.87 91.34,0 c 0,0 33.09,0.45 33.09,-43.09 0,-36.7 -24.73,-40.5 -37.69,-40.78" /><path
         id="path132"
         style="fill:#ffffff;fill-opacity:1;fill-rule:nonzero;stroke:none"
         d="m 4292.81,3615.19 c -120.67,0 -120.58,-120.56 -120.58,-120.56 0,0 -8.29,-119.98 120.58,-119.98 0,0 107.37,-6.13 107.37,83.47 l -55.22,0 c 0,0 1.81,-33.76 -50.31,-33.76 0,0 -55.25,-3.7 -55.25,54.62 l 162.64,0 c 0,0 17.78,136.21 -109.23,136.21 z m -54.02,-94.35 c 0,0 6.77,48.38 55.25,48.38 48.47,0 47.85,-48.38 47.85,-48.38 l -103.1,0" /><path
         id="path134"
         style="fill:#ffffff;fill-opacity:1;fill-rule:nonzero;stroke:none"
         d="m 4225.28,3637.93 129.484,0 0,38.6328 -129.484,0 0,-38.6328 z" /><path
         id="path136"
         style="fill:#1a1c15;fill-opacity:1;fill-rule:nonzero;stroke:none"
         d="m 4716.86,3148.95 753.613,0 0,753.613 -753.613,0 0,-753.613 z" /><path
         id="path138"
         style="fill:#6ec62e;fill-opacity:1;fill-rule:nonzero;stroke:none"
         d="m 5061.82,3591.19 75.56,109.44 c 14.28,20.62 32.75,30.95 55.33,30.95 18.45,0 34.41,-6.56 47.91,-19.63 13.48,-13.09 20.22,-28.77 20.22,-47.02 0,-13.47 -3.57,-25.38 -10.7,-35.69 l -68.12,-99.05 83.28,-105.62 c 8.32,-10.51 12.51,-22.79 12.51,-36.87 0,-18.66 -6.55,-34.65 -19.63,-48.05 -13.09,-13.38 -28.97,-20.08 -47.62,-20.08 -20.4,0 -35.97,6.64 -46.69,19.94 l -102.05,127.31 0,-70.22 c 0,-20.02 -3.45,-35.58 -10.41,-46.68 -12.68,-20.21 -31.12,-30.35 -55.32,-30.35 -22,0 -39.07,7.44 -51.16,22.32 -11.32,13.68 -16.95,31.82 -16.95,54.44 l 0,260.28 c 0,21.42 5.71,39.07 17.25,52.94 12.09,14.7 28.75,22.03 49.98,22.03 20.22,0 37.08,-7.33 50.54,-22.03 7.54,-8.11 12.32,-16.35 14.3,-24.69 1.18,-5.15 1.77,-14.75 1.77,-28.84 l 0,-64.83" /><path
         id="path140"
         style="fill:#682290;fill-opacity:1;fill-rule:nonzero;stroke:none"
         d="m 5650,3140 750,0 0,760 -750,0 0,-760 z" /><path
         id="path142"
         style="fill:#ffffff;fill-opacity:1;fill-rule:nonzero;stroke:none"
         d="m 6259.73,3662.77 -55.26,-18.52 c -8.22,-3.64 -30.58,-29.57 -69.36,-79.56 -41.19,-51.78 -62.34,-85.06 -65.87,-101.76 l -2.35,-46.23 -1.19,-27.75 4.74,-70.3 72.89,-1.83 -1.17,-35.2 -118.77,0 -105.83,-1.82 3.53,33.29 34.09,1.89 c 17.65,1.84 28.23,5.57 31.73,11.09 2.37,3.64 3.53,25.94 3.53,64.79 l 0,24.04 -1.16,48.05 c -2.37,11.09 -21.18,51.82 -57.6,122.13 -37.63,72.15 -62.32,114.7 -74.1,129.53 l -68.19,14.79 0,31.46 c 3.54,3.67 41.17,3.67 110.55,1.85 48.2,1.82 88.17,1.82 119.9,-1.85 l -2.34,-25.95 -71.72,-11.12 c 22.34,-51.77 56.45,-123.9 102.3,-214.57 59.97,72.17 91.72,118.41 92.88,138.73 l -61.12,14.82 -4.74,33.32 102.31,0 96.42,-1.86 -14.1,-31.46" /><path
         id="path144"
         style="fill:#f0401e;fill-opacity:1;fill-rule:nonzero;stroke:none"
         d="m 10,2200 750,0 0,750 -750,0 0,-750 z" /><path
         id="path146"
         style="fill:#ffffff;fill-opacity:1;fill-rule:nonzero;stroke:none"
         d="m 678.027,2628.52 -4.582,9.51 -7.652,6.01 c -10.066,7.85 -60.816,-0.56 -74.516,11.88 -9.683,8.94 -11.156,25.06 -14.089,46.78 -5.454,42.18 -8.946,44.37 -15.516,58.63 -23.906,50.78 -88.742,88.96 -133.309,94.28 l -120.726,0 c -95,0 -172.594,-77.84 -172.594,-172.84 l 0,-201.48 c 0,-94.79 77.594,-172.4 172.594,-172.4 l 198.359,0 c 94.961,0 172.031,77.61 172.594,172.4 l 1.078,139.57 -1.641,7.66 z m -368.222,85.87 95.707,0 c 18.273,0 33.062,-14.82 33.062,-32.89 0,-18.06 -14.789,-33.06 -33.062,-33.06 l -95.707,0 c -18.262,0 -33.032,15 -33.032,33.06 0,18.07 14.77,32.89 33.032,32.89 z M 504.312,2451 l -194.507,0 c -18.262,0 -33.032,14.96 -33.032,32.85 0,18.1 14.77,32.89 33.032,32.89 l 194.507,0 c 18.106,0 32.895,-14.79 32.895,-32.89 0,-17.89 -14.789,-32.85 -32.895,-32.85" /><path
         id="path148"
         style="fill:#ec4e27;fill-opacity:1;fill-rule:nonzero;stroke:none"
         d="m 940,2200 750,0 0,750 -750,0 0,-750 z" /><path
         id="path150"
         style="fill:#ffffff;fill-opacity:1;fill-rule:nonzero;stroke:none"
         d="m 1078.67,2872.11 45.67,-512.19 204.9,-56.89 205.47,56.97 45.74,512.11 -501.78,0 z m 406.53,-121.56 -2.86,-31.84 -1.26,-14.12 -240.39,0 5.75,-64.34 228.9,0 -1.53,-16.85 -14.76,-165.39 -0.94,-10.61 -128.55,-35.64 -0.28,-0.06 -128.67,35.7 -8.8,98.65 63.05,0 4.46,-50.11 69.96,-18.89 0.07,0 70.05,18.93 7.3,81.44 -217.7,0 -15.45,173.13 -1.5,16.85 314.65,0 -1.5,-16.85" /><path
         id="path152"
         style="fill:#449cd8;fill-opacity:1;fill-rule:nonzero;stroke:none"
         d="m 1870,2200 760,0 0,750 -760,0 0,-750 z" /><path
         id="path154"
         style="fill:#ffffff;fill-opacity:1;fill-rule:nonzero;stroke:none"
         d="m 2015.05,2876.33 47.68,-516.47 206.56,-55.6 206.58,55.64 47.67,516.43 -508.49,0 z m 406.11,-167.35 -152.07,-65.05 -0.38,-0.12 147.07,0 -16.82,-193.44 -129.67,-37.85 -130.34,38.57 -8.35,97.39 64.45,0 4.23,-50.45 69.37,-17.54 72.19,20.35 4.88,81.27 -219.33,0.72 0,0.08 -0.24,-0.08 -4.88,60.98 147.85,61.56 8.61,3.61 -162.09,0 -7.72,62.33 319.54,0 -6.3,-62.33" /><path
         id="path156"
         style="fill:#f46e16;fill-opacity:1;fill-rule:nonzero;stroke:none"
         d="m 2828.26,2205.43 753.598,0 0,753.613 -753.598,0 0,-753.613 z" /><path
         id="path158"
         style="fill:#ffffff;fill-opacity:1;fill-rule:nonzero;stroke:none"
         d="m 3205.06,2842.66 c -143.79,0 -260.42,-116.61 -260.42,-260.41 0,-143.81 116.63,-260.43 260.42,-260.43 143.8,0 260.42,116.62 260.42,260.43 0,143.8 -116.62,260.41 -260.42,260.41 z m -86.17,-109.59 c -1.65,0.45 -6.14,2.5 -7.45,0.45 l -0.02,-5.02 c 0.35,-3.05 0.72,-6.08 1.08,-9.12 4.39,-36.37 6.05,-74.75 -5.23,-110.06 -6.06,-19.03 -17.13,-36.41 -31.86,-49.89 -12.19,-11.17 -29.63,-22.48 -46.94,-21.64 -3.21,0.1 -6.4,0.65 -9.57,1.74 -18.54,6.23 -19.62,26.27 -19.71,42.72 -0.16,17.69 2,35.35 6.38,52.5 1.32,5.31 2.97,10.46 4.75,15.66 20.25,58.73 67.1,106.56 125.98,127.42 22.04,7.81 45.38,11.74 68.76,11.74 68.87,0 134.33,-35.39 172.17,-92.89 9.48,-14.41 17.08,-30.02 22.65,-46.31 l -0.08,0 c 1.78,-5.17 3.44,-10.31 4.81,-15.62 4.35,-17.17 6.48,-34.83 6.37,-52.52 -0.27,-33.34 -10.97,-70.04 -52.73,-52.43 -19.77,8.32 -36.25,25.28 -48.5,42.41 -14.13,19.7 -28.54,39.04 -44.3,57.42 -14.86,17.23 -30.63,33.71 -47.81,48.67 -17.07,14.9 -35.67,29.08 -56.21,38.93 -13.72,6.66 -27.88,11.64 -42.54,15.84" /><path
         id="path160"
         style="fill:#1a1817;fill-opacity:1;fill-rule:nonzero;stroke:none"
         d="m 3772.58,2205.43 753.594,0 0,753.613 -753.594,0 0,-753.613 z" /><path
         id="path162"
         style="fill:#ffffff;fill-opacity:1;fill-rule:nonzero;stroke:none"
         d="m 4149.38,2837.52 c -144.58,0 -261.78,-117.19 -261.78,-261.82 0,-115.6 74.98,-213.71 179.02,-248.36 13.11,-2.38 17.88,5.73 17.88,12.64 0,6.21 -0.2,22.68 -0.36,44.53 -72.81,-15.82 -88.16,35.08 -88.16,35.08 -11.92,30.23 -29.09,38.26 -29.09,38.26 -23.75,16.27 1.82,15.94 1.82,15.94 26.29,-1.86 40.11,-26.97 40.11,-26.97 23.33,-40.02 61.26,-28.42 76.19,-21.74 2.35,16.93 9.11,28.42 16.59,34.98 -58.13,6.58 -119.24,29.1 -119.24,129.39 0,28.54 10.22,51.94 26.93,70.22 -2.68,6.64 -11.65,33.24 2.59,69.29 0,0 21.95,7.04 71.98,-26.85 20.87,5.82 43.3,8.73 65.53,8.83 22.24,-0.1 44.64,-3.01 65.52,-8.83 50.01,33.89 71.97,26.85 71.97,26.85 14.25,-36.05 5.28,-62.65 2.57,-69.29 16.75,-18.28 26.92,-41.68 26.92,-70.22 0,-100.58 -61.23,-122.71 -119.55,-129.2 9.39,-8.08 17.79,-24.02 17.79,-48.45 0,-35 -0.32,-63.23 -0.32,-71.82 0,-6.99 4.73,-15.12 18.01,-12.56 103.91,34.65 178.85,132.72 178.85,248.28 0,144.63 -117.17,261.82 -261.77,261.82" /><path
         id="path164"
         style="fill:#1a1817;fill-opacity:1;fill-rule:nonzero;stroke:none"
         d="m 4716.86,2205.43 753.613,0 0,753.594 -753.613,0 0,-753.594 z" /><path
         id="path166"
         style="fill:#ffffff;fill-opacity:1;fill-rule:nonzero;stroke:none"
         d="m 5071.46,2607.71 -110.04,0 c -2.86,0 -5.15,-2.3 -5.15,-5.15 l 0,-53.79 c 0,-2.85 2.29,-5.16 5.15,-5.16 l 42.92,0 0,-66.87 c 0,0 -9.64,-3.28 -36.3,-3.28 -31.46,0 -75.38,11.48 -75.38,108.08 0,96.62 45.77,109.36 88.69,109.36 37.19,0 53.18,-6.56 63.38,-9.73 3.21,-0.97 6.17,2.23 6.17,5.06 l 12.26,52.01 c 0,1.33 -0.45,2.95 -1.97,4.03 -4.12,2.93 -29.35,17.07 -93.15,17.07 -73.5,0 -148.84,-31.27 -148.84,-181.55 0,-150.29 86.3,-172.69 159,-172.69 60.22,0 96.74,25.72 96.74,25.72 1.5,0.84 1.68,2.95 1.68,3.93 l 0,167.81 c 0,2.85 -2.31,5.15 -5.16,5.15" /><path
         id="path168"
         style="fill:#ffffff;fill-opacity:1;fill-rule:nonzero;stroke:none"
         d="m 5188.42,2698.77 c 0,22.28 -17.9,40.35 -39.96,40.35 -22.05,0 -39.98,-18.07 -39.98,-40.35 0,-22.29 17.93,-40.37 39.98,-40.37 22.06,0 39.96,18.08 39.96,40.37" /><path
         id="path170"
         style="fill:#ffffff;fill-opacity:1;fill-rule:nonzero;stroke:none"
         d="m 5183.98,2485.43 c 0,8.3 0,149.71 0,149.71 0,2.83 -2.28,5.15 -5.1,5.15 l -61.81,0 c -2.82,0 -5.35,-2.93 -5.35,-5.76 0,0 0,-180.14 0,-214.47 0,-6.29 3.9,-8.18 8.99,-8.18 0,0 26.37,0 55.68,0 6.07,0 7.59,3 7.59,8.28 0,11.48 0,56.54 0,65.27" /><path
         id="path172"
         style="fill:#ffffff;fill-opacity:1;fill-rule:nonzero;stroke:none"
         d="m 5362.11,2640.31 -46.49,0 -0.05,61.43 c 0,2.32 -1.23,3.49 -3.91,3.49 l -63.33,0 c -2.49,0 -3.83,-1.09 -3.83,-3.43 l 0,-63.48 c 0,0 -31.71,-7.68 -33.86,-8.3 -2.13,-0.63 -3.75,-2.6 -3.75,-4.94 l 0,-39.88 c 0,-2.88 2.31,-5.18 5.14,-5.18 l 32.47,0 c 0,0 0,-41.7 0,-95.94 0,-71.29 50.01,-78.28 83.73,-78.28 15.41,0 33.84,4.94 36.91,6.08 1.81,0.68 2.93,2.59 2.93,4.66 l 0.04,43.87 c 0,2.87 -2.42,5.16 -5.14,5.16 -2.7,0 -9.63,-1.1 -16.78,-1.1 -22.84,0 -30.57,10.63 -30.57,24.38 0,13.73 0,91.17 0,91.17 l 46.49,0 c 2.84,0 5.15,2.3 5.15,5.18 l 0,49.96 c 0,2.87 -2.31,5.15 -5.15,5.15" /><path
         id="path174"
         style="fill:#c37634;fill-opacity:1;fill-rule:nonzero;stroke:none"
         d="m 0,1270 750,0 0,750 -750,0 0,-750 z" /><path
         id="path176"
         style="fill:#ffffff;fill-opacity:1;fill-rule:nonzero;stroke:none"
         d="m 385.445,1916.6 c -149.082,0 -269.937,-120.23 -269.937,-268.51 0,-148.32 120.855,-268.54 269.937,-268.54 149.063,0 269.93,120.22 269.93,268.54 0,148.28 -120.867,268.51 -269.93,268.51 z m 0,-494.45 c -125.441,0 -227.121,101.13 -227.121,225.94 0,124.76 101.68,225.91 227.121,225.91 125.434,0 227.11,-101.15 227.11,-225.91 0,-124.81 -101.676,-225.94 -227.11,-225.94" /><path
         id="path178"
         style="fill:#ffffff;fill-opacity:1;fill-rule:nonzero;stroke:none"
         d="m 554.586,1641.48 0.125,0.12 0,0.02 c 3.527,3.65 3.547,9.4 -0.02,12.91 l -132.5,131.82 c -1.785,1.77 -4.132,2.69 -6.476,2.69 -2.379,0 -4.731,-0.92 -6.52,-2.69 l -0.14,-0.18 c -1.743,-1.72 -2.707,-4.02 -2.707,-6.46 l 0,-36.47 c 0,-2.42 0.964,-4.74 2.707,-6.44 l 89.133,-88.71 -89.133,-88.71 c -1.743,-1.72 -2.707,-4.05 -2.707,-6.47 l 0,-36.48 c 0,-2.39 0.964,-4.75 2.707,-6.45 l 0.14,-0.18 c 1.723,-1.69 4.071,-2.67 6.52,-2.67 2.433,0 4.758,0.98 6.476,2.67 l 132.395,131.68" /><path
         id="path180"
         style="fill:#ffffff;fill-opacity:1;fill-rule:nonzero;stroke:none"
         d="m 219.496,1641.48 -0.105,0.12 0,0.02 c -3.536,3.65 -3.536,9.4 0,12.91 l 132.5,131.82 c 1.808,1.77 4.16,2.69 6.5,2.69 2.367,0 4.699,-0.92 6.492,-2.69 l 0.179,-0.18 c 1.723,-1.72 2.708,-4.02 2.708,-6.46 l 0,-36.47 c 0,-2.42 -0.985,-4.74 -2.708,-6.44 l -89.171,-88.71 89.171,-88.71 c 1.723,-1.72 2.708,-4.05 2.708,-6.47 l 0,-36.48 c 0,-2.39 -0.985,-4.75 -2.708,-6.45 l -0.179,-0.18 c -1.703,-1.69 -4.039,-2.67 -6.492,-2.67 -2.43,0 -4.762,0.98 -6.5,2.67 l -132.395,131.68" /><path
         id="path182"
         style="fill:#51aa36;fill-opacity:1;fill-rule:nonzero;stroke:none"
         d="m 1870,1260 760,0 0,750 -760,0 0,-750 z" /><path
         id="path184"
         style="fill:#ffffff;fill-opacity:1;fill-rule:nonzero;stroke:none"
         d="m 2258.29,1904.26 -103.6,-242.12 -103.62,-242.14 168.93,0 0,101.43 -39.31,33.86 5.6,12.39 33.71,-27.21 0,79.53 60,0 0,-50.61 41.18,20.28 6.27,-13.65 -47.45,-23.89 0,-38.44 73.45,36.78 6.23,-13.69 -79.68,-40.33 0,-76.45 185.57,0 -103.66,242.14 -103.62,242.12" /><path
         id="path186"
         style="fill:#b9e4f4;fill-opacity:1;fill-rule:nonzero;stroke:none"
         d="m 5663.91,2210.78 753.594,0 0,753.594 -753.594,0 0,-753.594 z" /><path
         id="path188"
         style="fill:#ffffff;fill-opacity:1;fill-rule:nonzero;stroke:none"
         d="m 6323.96,2489.41 c -0.6,-7.03 -3.88,-13.16 -7.95,-18.69 -4.86,-6.58 -10.74,-12.4 -16.81,-17.83 -23.54,-20.9 -50.41,-37.46 -79.68,-49.04 -33.06,-13.09 -68.19,-20.39 -103.43,-24.06 -38.1,-4.01 -76.78,-4.03 -114.94,-0.88 -32.87,2.73 -65.76,8.2 -97.21,18.47 -27.16,8.85 -53.33,21.45 -76.02,39.01 -10.65,8.26 -20.5,17.54 -29.23,27.81 -4.37,5.16 -8.49,10.55 -12.28,16.09 l -1.61,2.39 c -0.69,1.07 -0.65,1.71 -0.65,3 0,2.7 0,5.34 0,8.03 0,4.98 1.14,10.1 1.92,15 6.19,38.3 16.18,76.04 30.67,112.11 13.61,33.85 31.25,66.23 53.31,95.39 20.8,27.48 45.55,52.34 74.02,71.95 14.56,9.98 30.17,18.6 46.65,25.06 8.26,3.23 16.73,5.92 25.32,7.99 4.33,1.06 8.71,1.9 13.12,2.62 2.32,0.35 4.62,0.66 6.93,0.99 2.5,0.28 5.02,0.18 7.55,0.18 5.51,0 11.06,0 16.55,0 2.88,0 5.75,0 8.61,0 2.26,0 4.55,-0.57 6.76,-1.02 8.69,-1.68 17.3,-3.75 25.79,-6.3 15.63,-4.67 30.9,-10.94 45.26,-18.77 27.12,-14.75 50.75,-35 71.01,-58.13 21.72,-24.82 40.43,-52.42 55.57,-81.66 17.92,-34.51 31.08,-71.42 39.72,-109.33 0.71,-3.19 1.52,-6.41 2.34,-9.58 2.24,-8.73 4.61,-17.48 6.39,-26.32 1.62,-7.99 2.98,-16.27 2.32,-24.48" /><path
         id="path190"
         style="fill:#68c563;fill-opacity:1;fill-rule:nonzero;stroke:none"
         d="m 6233.7,2589.04 c -8.45,13.71 -18.23,26.37 -28.38,38.77 -10.44,12.72 -21.34,25.02 -32.83,36.8 -13.18,13.53 -27.18,26.39 -42.26,37.77 -1.97,1.49 -4.08,2.85 -5.85,4.55 -1.57,1.53 -3.34,2.78 -5.32,3.68 -3.58,1.62 -7.71,2.05 -11.48,0.82 -8.26,-2.7 -14.42,-10.77 -20.19,-16.84 -14.08,-14.8 -25.98,-31.43 -38.3,-47.68 -11.2,-14.86 -22.98,-29.94 -37.45,-41.85 -5.25,-4.38 -11.54,-9.22 -18.59,-9.63 -4.89,-0.31 -9.7,0.72 -14.11,2.73 -9.58,4.4 -17.08,12.46 -24.03,20.18 -12.23,13.5 -28.04,35.43 -49.18,28.63 -15.03,-4.82 -26.63,-17.79 -36.08,-29.82 -5.8,-7.42 -10.98,-15.31 -16.04,-23.26 -4.97,-7.76 -9.95,-15.45 -14.83,-23.3 -9.8,-15.82 -18.96,-32.13 -24.97,-49.79 -1.58,-4.53 -2.96,-9.24 -4.05,-13.91 -0.59,-2.51 -1.14,-5.03 -1.58,-7.55 -0.21,-1.16 -0.02,-1.59 0.48,-2.6 l 1.07,-2.09 c 3.04,-5.82 6.65,-11.33 10.66,-16.45 17.28,-22.09 42.19,-36.75 68.03,-46.68 30.91,-11.91 63.98,-17.77 96.83,-20.86 36.37,-3.36 73.22,-3.45 109.63,-0.93 35.23,2.44 70.83,8.53 103.88,21.27 27.45,10.58 55.28,26.77 70.69,52.69 0.5,0.92 1.05,1.84 1.46,2.77 8.68,17.6 -0.09,35.61 -8.81,51.22 -9.52,17.09 -18.17,34.66 -28.4,51.36" /><path
         id="path192"
         style="fill:#47a2ce;fill-opacity:1;fill-rule:nonzero;stroke:none"
         d="m 2820,1260 750,0 0,750 -750,0 0,-750 z" /><path
         id="path194"
         style="fill:#ffffff;fill-opacity:1;fill-rule:nonzero;stroke:none"
         d="m 3159.83,1883.69 -193.26,-193.28 c -23.11,-23.09 -23.11,-60.9 0,-84.02 l 193.29,-193.28 c 23.09,-23.07 60.9,-23.07 84.01,0 l 193.24,193.28 c 23.1,23.12 23.1,60.88 0,84.02 l -0.93,0.94 -203.37,-203.5 c -8.77,-8.67 -20.41,-13.49 -32.79,-13.49 l -9.02,0.03 -1.88,1.25 c -8.32,1.98 -15.96,6.29 -22.01,12.37 l -133.82,134.06 c -8.77,8.79 -13.62,20.37 -13.62,32.79 0,12.39 4.85,24.03 13.62,32.78 l 39.59,39.53 c 8.62,8.59 20.52,13.47 32.77,13.51 12.21,0 24.15,-4.98 32.71,-13.63 l 61.7,-61.8 131.07,131.18 -87.26,87.26 c -23.11,23.07 -60.92,23.07 -84.04,0" /><path
         id="path196"
         style="fill:#ffffff;fill-opacity:1;fill-rule:nonzero;stroke:none"
         d="m 3411.53,1812.25 c -3.15,3.18 -7.28,4.88 -11.73,4.88 -4.48,0 -8.65,-1.7 -11.82,-4.83 l -188.91,-189.06 -82.71,82.91 c -3.11,3.09 -7.34,4.89 -11.78,4.89 -4.35,0 -8.65,-1.7 -11.75,-4.83 l -39.53,-39.39 c -6.53,-6.51 -6.57,-16.78 -0.04,-23.28 l 133.85,-133.72 c 2.69,-2.67 6.18,-7.27 9.86,-7.66 l 1.92,-2.16 0.14,0 c 4.47,0 8.7,3.76 11.87,6.9 l 240.12,240.4 c 6.47,6.49 6.51,17.97 0.03,24.47 l -39.52,40.48" /><path
         id="path198"
         style="fill:#51aa36;fill-opacity:1;fill-rule:nonzero;stroke:none"
         d="m 940,1270 750,0 0,750 -750,0 0,-750 z" /><path
         id="path200"
         style="fill:#ffffff;fill-opacity:1;fill-rule:nonzero;stroke:none"
         d="m 1092.65,1739.61 c 1.06,-8.71 2.64,-19.98 4.66,-32.72 4.02,-25.39 9.84,-56.46 16.97,-83.77 4.74,-18.2 10.08,-34.72 15.77,-46.71 3.25,-6.86 6.63,-12.21 9.88,-15.41 1.27,-1.31 3.37,-2.74 6.15,-4.11 2.78,-1.38 6.22,-2.77 10.16,-4.14 7.87,-2.65 17.75,-5.17 28.4,-7.4 21.38,-4.49 46.08,-9.6 65.25,-11.65 12.76,-1.31 23.12,-3.7 28.3,-3.7 l 0.03,0 c 1.58,0 2.84,2.08 4.01,2.88 1.19,0.8 2.32,2.9 3.34,4.62 2.03,3.38 3.57,8.92 4.62,14.62 2.11,11.47 2.39,25.52 3.25,34.47 0.24,2.58 0.51,4.84 0.95,6.57 0.24,0.94 0.51,1.82 0.97,2.62 l 1.12,-2.59 2,-3.19 0.02,0 2.04,3.37 1.44,0.83 c 0.85,-0.86 1.53,-0.85 2.24,-2 1.43,-2.29 2.97,-4.81 4.86,-8.18 3.75,-6.76 8.91,-14.8 16.72,-21.38 5.2,-4.42 11.59,-7.99 19.64,-10.02 10.9,-2.72 23.17,-4.4 34.83,-6.31 11.66,-1.9 22.72,-3.97 31.47,-7.68 5.82,-2.5 10.66,-5.71 13.73,-10.36 1.76,-2.66 2.87,-5.71 3.2,-9.17 1.13,-11.42 2.21,-24.04 2.21,-35.82 0,-8.1 -0.51,-15.8 -1.89,-22.48 -1.42,-6.66 -3.7,-17.06 -7.56,-21.07 -2.57,-2.67 -5.9,-9.73 -9.82,-9.73 l -0.13,0 -47.53,2.75 -0.16,2.35 c -8.62,0.62 -14.87,4.76 -18.9,9.03 -4.01,4.28 -5.68,10.37 -5.68,15.55 0,3.87 0.91,7.88 2.43,11.1 1.55,3.26 3.77,0.77 6.57,2.59 1.87,1.19 4.05,-3.37 6.34,-3.37 l 0.04,0 c 9.57,0 15.93,5.69 19.03,5.89 l 1.58,37.37 -0.98,-6.74 c -2.12,0.16 -5.19,-6.52 -8.86,-6.52 l -0.04,0 c -7.84,0 -18.41,7.45 -28.58,4.7 -10.15,-2.76 -19.84,-3.47 -26.14,-11.5 -4.19,-5.39 -7.03,-10.13 -7.58,-19.07 -0.41,-6.82 -0.62,-12.05 -0.62,-17.77 0,-12.5 0.91,-22.06 2.28,-29.95 1.36,-7.87 3.17,-13.32 4.98,-16.98 1.18,-2.46 2.39,-3.84 3.19,-4.47 1.47,-1.23 2.88,-2.42 5.81,-3.85 2.91,-1.42 7.31,-3.73 14.44,-5.13 14.26,-2.87 39.34,-5.98 84.62,-5.98 l 0.1,0 c 8.88,0 16.8,2.67 23.96,6.16 7.17,3.54 13.57,9.04 19.31,15.64 11.46,13.16 20.26,32.35 26.78,54.99 13.02,45.27 16.93,105.06 16.95,161.44 0,62 -4.72,120.05 -7.07,151.01 -0.8,10.31 -1.32,17.6 -1.32,21.19 -0.04,7.19 -2.53,12.6 -6.41,17.05 -3.91,4.4 -9.25,5.87 -14.82,8.27 -11.07,4.86 -22.79,4.25 -24.04,4.25 l -0.11,0 -122.6,9.15 -8.45,4.07 0,0.14 8.2,0.53 c -0.04,0.47 4,1.15 3.85,2.07 -0.26,1.77 1.34,4.25 0.56,7.16 -1.55,5.81 -3.35,13.19 -8.16,19.44 -3.22,4.16 -6.79,7.83 -12.06,10.31 -4.84,2.27 -10.86,3.83 -17.84,4.75 -6.99,0.97 -14.55,1.29 -22.25,1.29 -9.05,0 -18.03,-0.47 -26.05,-0.92 -8.03,-0.49 -14.94,-1 -19.92,-1.04 -3.94,-0.07 -6.83,-1.33 -9.34,-3.45 -2.49,-2.19 -4.51,-5.41 -6.04,-9.46 -3.11,-8.02 -4.2,-19.08 -4.19,-29.86 0,-21.84 0.41,-31.74 0.41,-47.72 0,-6.28 -1.19,-11.52 -3.58,-15.68 -2.4,-4.14 -6,-12.33 -10.37,-13.93 -2.89,-1.1 -6.09,-6.85 -9.56,-6.85 l -63.7,0 c -2.25,0 -4.39,0 -6.42,0 l -0.08,0 c -5.22,0 -9.85,4.76 -13.41,3.61 -3.59,-1.25 -6.02,-0.41 -7.47,-2.95 -0.96,-1.73 -1.53,-2.56 -1.53,-5.39 0,-1.02 0.13,-2.49 0.39,-5.39 0.28,-2.88 0.68,-5.92 1.21,-10.27 z m 292.78,-74.14 c 2.21,4.86 5.65,8.8 10.81,12.02 3.42,2.17 7.6,2.51 12.4,2.51 l 0.03,0 c 3.85,0 7.4,0.07 10.53,-1.49 3.17,-1.58 5.95,-3.26 8.34,-5.74 4.83,-4.94 8.2,-10.81 10.19,-16.1 1.32,-3.53 2.05,-6.48 2.08,-8.94 l -0.22,-1.87 -1.16,-2.01 -1.61,-0.9 -1.59,-0.25 c -1.02,0.01 -1.93,0.2 -2.87,0.51 -0.97,0.27 -1.94,0.7 -2.96,1.17 -2.06,0.91 -4.32,1.08 -6.7,2.25 -4.68,2.25 -9.87,3.37 -13.93,3.37 l -8.77,0 0,2.05 c 0,0 -1.72,-0.84 -4.57,-1.89 -2.84,-1.06 -3.3,-2.37 -5.66,-3.32 -1.61,-0.65 -1.96,-1.18 -3.62,-1.2 l -1.44,0.36 -1.52,1.3 -0.89,2.31 -0.17,2.54 c 0,3.53 1.1,8.38 3.3,13.32" /><path
         id="path202"
         style="fill:#ffffff;fill-opacity:1;fill-rule:nonzero;stroke:none"
         d="m 1134.51,1780 c 16.26,0 35.49,0 35.49,0 l 0,7.15 c 10,0 10.09,2.58 11.79,3.69 1.69,1.11 3.76,3.26 4.28,5.06 0.29,1.21 1.09,3.01 1.09,4.47 0,3.26 0.72,22.23 1.11,40.24 0.25,11.3 0.68,17.08 0.84,23.71 L 1109.77,1780 c 0.99,0 2.06,0 3.2,0 5.7,0 13.42,0 21.54,0" /><path
         id="path204"
         style="fill:#eb5b1b;fill-opacity:1;fill-rule:nonzero;stroke:none"
         d="m 4716.86,4085.47 753.613,0 0,753.609 -753.613,0 0,-753.609 z" /><path
         id="path206"
         style="fill:#ffffff;fill-opacity:1;fill-rule:nonzero;stroke:none"
         d="m 5238.34,4269.99 c -11.36,-7.36 -24.06,0.96 -37.83,2.12 -34.14,2.84 -77.49,0 -119.82,0 -40.99,0 -83.06,1.5 -117.69,0 -17.9,-0.79 -37.17,-6.97 -50.47,2.09 -3.83,30.98 34.02,14.98 48.36,29.41 2.51,2.55 9.12,20.43 10.52,31.54 3.9,31.81 0,84.44 0,136.64 0,49.38 3.3,100.85 0,134.52 -1.27,12.69 -6.79,31.5 -10.52,35.75 -11.48,13.08 -44.34,3.05 -39.94,27.32 6.5,10.89 22.42,6.31 31.52,6.31 76.29,0 184.93,-4.72 256.45,4.22 6.88,0.84 17.86,5.94 25.23,-4.22 2.72,-10.29 -3.51,-19.44 -4.21,-33.63 -0.92,-18.94 10.13,-59.89 -12.62,-54.65 -11.28,2.59 -6.31,25 -12.59,35.73 -11.61,19.69 -72.43,22.97 -111.44,23.11 -22.25,0.08 -55.09,-0.41 -69.36,-14.73 -3.29,-38.77 -3.6,-91.56 0,-130.31 26.3,-4.83 75.72,-7.57 107.21,-4.2 8.02,0.86 19.83,2.47 25.22,6.31 16.97,11.97 4.66,33.4 21.02,46.24 20.86,-0.28 13.47,-22.71 12.62,-42.04 -0.62,-14.31 -0.67,-31.75 0,-44.14 1.07,-19.24 9.5,-39.86 -6.3,-44.13 -22.95,7.82 -11.65,31.86 -31.53,44.13 -29.68,18.37 -84.07,1.11 -126.11,4.21 -7.18,-21.26 -4.22,-47.88 -4.22,-75.68 0,-24.58 -5.83,-54.36 4.22,-73.56 11.86,-22.76 69.9,-19.42 102.99,-16.8 38.57,2.99 79.09,10.86 90.39,33.6 9.34,18.81 -1.77,33.19 14.71,48.36 38.7,-7.42 12.09,-42.35 8.41,-71.46 -1.94,-15.34 4.55,-30.66 -4.22,-42.06" /><path
         id="path208"
         style="fill:#83ce94;fill-opacity:1;fill-rule:nonzero;stroke:none"
         d="m 2475.86,44.1211 12.1,0 0,39.9531 20.09,19.1678 39.49,-59.1209 14.14,0 -45.19,67.3439 39.95,38.574 -15.52,0 -52.96,-51.5898 0,92.2068 -12.1,0 0,-146.5349 z m -24.41,105.9179 -12.33,0 0,-62.5468 c 0,-7.9102 -2.1,-15.2578 -6.28,-22.0234 -4.19,-6.7774 -10.54,-10.7696 -19.06,-11.9844 l -2.06,-0.3399 -2.28,-0.3398 -2.16,-0.1172 -2.17,-0.1094 -1.82,0 -1.83,0.2266 c -2.75,0.293 -5.41,0.9375 -7.99,1.9414 -2.59,0.9844 -4.95,2.4609 -7.08,4.4531 -2.13,2.1172 -3.58,4.5899 -4.34,7.4102 -0.76,2.8164 -1.21,5.664 -1.36,8.5586 -0.16,1.0625 -0.24,2.1758 -0.24,3.3086 0,1.1445 0,2.2461 0,3.3203 l 0,68.2421 -12.31,0 0,-71.2226 c 0,-4.7148 0.41,-9.3906 1.25,-14.0312 0.83,-4.6407 3,-8.8008 6.5,-12.4414 2.74,-3.0352 5.93,-5.4024 9.59,-7.0704 3.65,-1.6679 7.38,-2.7422 11.18,-3.2031 l 2.4,-0.1172 2.4,-0.1054 c 1.22,0 2.39,0.039 3.54,0.1054 1.13,0.0899 2.31,0.2735 3.53,0.5781 6.09,0.9063 11.99,3.0079 17.7,6.2774 5.7,3.2617 10.15,7.4141 13.34,12.4336 l 0,-17.1211 11.88,0 0,105.9179 z m -126.91,-105.9179 13.46,0 0,18.0391 -13.46,0 0,-18.0391 z m -45.87,42.2344 c -1.07,-9.7461 -4.72,-17.8399 -10.96,-24.3047 -6.24,-6.4727 -14.31,-9.707 -24.2,-9.707 -12.47,0 -21.57,4.414 -27.27,13.2421 -5.71,8.8203 -8.56,18.7891 -8.56,29.9024 l 0,0.4492 0.23,0.4492 0,1.1524 -0.23,0.3437 0,0.3399 c 0,11.4183 2.93,21.5353 8.78,30.3633 5.86,8.816 14.87,13.23 27.05,13.23 l 4.11,0 c 10.96,-0.918 18.76,-5.437 23.4,-13.586 4.64,-8.132 7.26,-17 7.87,-26.582 l 0.23,-2.398 c 0,-0.832 0,-1.7109 0,-2.6289 0,-0.7617 0,-1.5899 0,-2.5117 0,-0.918 0,-1.7461 0,-2.5078 0,-0.9102 -0.04,-1.8282 -0.11,-2.7344 -0.08,-0.918 -0.2,-1.7578 -0.34,-2.5117 z m -83.55,10.7265 c 0,-15.6758 3.84,-28.7617 11.53,-39.2578 7.69,-10.5117 19.97,-15.7539 36.86,-15.7539 16.74,0 29.06,5.2422 36.98,15.7539 7.91,10.4961 11.87,23.582 11.87,39.2578 l 0,2.2852 c -0.31,12.1678 -3.42,23.5158 -9.36,34.0118 -5.93,10.5 -15.67,16.66 -29.21,18.488 l -1.83,0.106 -1.82,0.117 c -1.37,0.144 -2.67,0.265 -3.89,0.344 -1.21,0.078 -2.36,0.117 -3.42,0.117 -15.53,0 -27.36,-5.059 -35.49,-15.188 -8.14,-10.117 -12.22,-23.547 -12.22,-40.281 z m -33.77,-16.4375 c -1.37,-7.9101 -4.73,-14.6875 -10.05,-20.3125 -5.33,-5.6328 -12.25,-8.4375 -20.77,-8.4375 l -0.69,0.2149 -0.34,0.125 -0.34,0.1094 -0.45,0 c -10.81,0.3007 -18.76,4.4843 -23.85,12.5507 -5.11,8.0664 -8.04,16.9024 -8.8,26.4844 -0.15,0.918 -0.22,1.7773 -0.22,2.625 0,0.832 0,1.7109 0,2.6172 l 0,1.3672 0.22,1.3789 0,2.5078 c 0.46,12.324 3.81,21.758 10.05,28.313 6.23,6.531 13.09,10.339 20.54,11.394 l 2.17,0.129 2.16,0.105 0.92,0 c 6.39,-0.144 12.4,-2.39 18.03,-6.726 5.63,-4.348 9.05,-10.617 10.28,-18.828 l 11.86,0 c -0.61,11.707 -5.17,20.679 -13.69,26.922 -8.52,6.242 -17.88,9.367 -28.08,9.367 l -2.39,-0.117 -2.4,-0.122 c -10.5,-1.062 -20.17,-6.082 -28.99,-15.054 -8.82,-8.988 -13.23,-22.363 -13.23,-40.176 l 0,-1.8281 0.22,-1.8242 0,-3.8789 c 0.92,-15.3711 5.78,-26.9844 14.61,-34.8047 8.82,-7.8399 18.41,-12.0586 28.76,-12.6758 l 1.71,-0.2226 2.39,0 c 10.05,0.1562 19.37,3.5351 27.97,10.1562 8.59,6.6211 13.43,16.1719 14.49,28.6406 l -12.09,0 z m -120.29,-36.5234 13.47,0 0,18.0391 -13.47,0 0,-18.0391 z m -72.81,-20.3125 47.02,126.2304 -12.55,0 -33.78,-90.3906 -34.01,90.3906 -13.02,0 L 1963,43.6719 c -0.61,-1.668 -1.26,-3.5742 -1.94,-5.7031 -0.68,-2.1368 -1.48,-4.3438 -2.39,-6.6211 -1.07,-3.2032 -2.33,-6.2032 -3.77,-9.0118 -1.45,-2.8242 -3.08,-4.9921 -4.91,-6.5156 -0.91,-0.7617 -1.9,-1.3672 -2.96,-1.8164 -1.07,-0.4687 -2.21,-0.7734 -3.43,-0.918 l -2.28,-0.3398 -2.06,-0.1172 -1.94,0.1172 -1.93,0.3398 -0.92,0 -1.71,0.3438 -1.49,-0.1172 0,-11.18359 0.92,-0.11719 0.91,-0.10547 1.37,0 c 1.07,-0.15625 2.13,-0.26563 3.2,-0.34375 1.06,-0.08594 1.97,-0.11719 2.74,-0.11719 6.69,0 12.36,1.90625 17,5.70313 4.64,3.80856 8.25,9.36716 10.84,16.66016 z m -76.69,62.5469 c -1.06,-9.7461 -4.71,-17.8399 -10.95,-24.3047 -6.25,-6.4727 -14.31,-9.707 -24.2,-9.707 -12.48,0 -21.57,4.414 -27.27,13.2421 -5.71,8.8203 -8.57,18.7891 -8.57,29.9024 l 0,0.4492 0.23,0.4492 0,1.1524 -0.23,0.3437 0,0.3399 c 0,11.4183 2.94,21.5353 8.79,30.3633 5.86,8.816 14.87,13.23 27.05,13.23 l 4.11,0 c 10.96,-0.918 18.75,-5.437 23.4,-13.586 4.64,-8.132 7.26,-17 7.87,-26.582 l 0.23,-2.398 c 0,-0.832 0,-1.7109 0,-2.6289 0,-0.7617 0,-1.5899 0,-2.5117 0,-0.918 0,-1.7461 0,-2.5078 0,-0.9102 -0.04,-1.8282 -0.11,-2.7344 -0.09,-0.918 -0.2,-1.7578 -0.35,-2.5117 z m -83.54,10.7265 c 0,-15.6758 3.84,-28.7617 11.53,-39.2578 7.68,-10.5117 19.97,-15.7539 36.86,-15.7539 16.74,0 29.06,5.2422 36.98,15.7539 7.9,10.4961 11.86,23.582 11.86,39.2578 l 0,2.2852 c -0.3,12.1678 -3.41,23.5158 -9.35,34.0118 -5.94,10.5 -15.67,16.66 -29.22,18.488 l -1.82,0.106 -1.83,0.117 c -1.37,0.144 -2.66,0.265 -3.88,0.344 -1.22,0.078 -2.36,0.117 -3.42,0.117 -15.52,0 -27.36,-5.059 -35.5,-15.188 -8.14,-10.117 -12.21,-23.547 -12.21,-40.281 z m -70.98,-52.9609 13.23,0 39.49,105.9179 -12.55,0 -33.33,-90.8398 -33.55,90.8398 -13.24,0 39.95,-105.9179 z m -99.75,12.1016 c -1.83,-0.6172 -3.91,-1.2618 -6.27,-1.9454 -2.37,-0.6835 -4.84,-1.1796 -7.43,-1.4726 l -2.39,-0.1172 -2.4,-0.1094 -1.82,0 c -3.19,0.1367 -6.28,0.8203 -9.25,2.043 -2.96,1.2187 -5.51,2.8906 -7.64,5.0273 -0.91,0.9102 -1.75,1.9336 -2.51,3.086 -0.77,1.1328 -1.37,2.2383 -1.83,3.3008 -0.31,0.9179 -0.54,1.7968 -0.69,2.6289 l -0.22,2.3984 c 0,4.418 1.75,8.5977 5.25,12.5508 3.5,3.9531 7.45,6.5429 11.86,7.7656 3.2,1.0625 6.51,1.8516 9.93,2.3906 3.43,0.5391 6.81,1.0274 10.16,1.4844 l 1.26,0.2344 1.25,0.2265 c 3.65,0.4571 7.27,0.9454 10.84,1.4844 3.58,0.5352 7.11,1.3242 10.62,2.3906 l 0,-8.4453 c 0,-7.4609 -0.99,-14.1914 -2.97,-20.1953 -1.98,-6.0156 -7.23,-10.9297 -15.75,-14.7265 z m 19.4,3.4257 -0.46,-1.1406 c 0,-5.9297 1.49,-9.8633 4.45,-11.7578 2.97,-1.8945 6.66,-2.8438 11.08,-2.8438 0.91,0 1.86,0 2.85,0 0.99,0 2.01,0.0704 3.08,0.2149 l 2.97,0 0,9.3633 -0.69,0 -0.68,-0.2305 -0.68,0 -1.15,-0.1094 -0.91,-0.1172 c -3.04,0 -5.13,0.8008 -6.28,2.4024 -1.14,1.5898 -1.71,4.5234 -1.71,8.7812 l 0,56.3751 c 0,10.801 -3.95,18.879 -11.87,24.199 -7.92,5.32 -16.65,8 -26.24,8 l -3.2,0 c -9.74,-0.617 -18.64,-3.859 -26.71,-9.707 -8.06,-5.859 -12.32,-14.043 -12.78,-24.543 l 12.33,0 c 0.6,7.754 3.87,13.699 9.81,17.805 5.94,4.109 12.48,6.16 19.63,6.16 l 2.17,0 1.94,-0.227 c 2.74,-0.308 5.48,-0.878 8.22,-1.714 2.73,-0.84 5.17,-2.012 7.3,-3.539 1.67,-1.219 3.08,-2.997 4.22,-5.36 1.15,-2.351 1.95,-4.832 2.4,-7.41 l 0.34,-2.18 0.11,-2.168 c 0,-2.734 -0.61,-5.281 -1.82,-7.644 -1.22,-2.356 -3.35,-3.848 -6.39,-4.453 -2.59,-0.45 -5.18,-0.832 -7.76,-1.133 -2.59,-0.305 -5.25,-0.617 -7.99,-0.918 l -1.82,-0.227 -1.83,-0.234 c -5.03,-0.605 -10.01,-1.367 -14.95,-2.273 -4.95,-0.918 -9.63,-2.434 -14.04,-4.5708 -5.33,-2.4336 -9.55,-6.125 -12.67,-11.0664 -3.12,-4.9414 -4.67,-10.2344 -4.67,-15.8672 l 0.1,-2.2851 0.35,-2.2774 c 0.3,-1.5234 0.72,-3.0469 1.26,-4.5586 0.53,-1.5234 1.17,-3.0586 1.94,-4.5703 3.19,-5.625 7.34,-9.668 12.44,-12.1015 5.09,-2.4297 10.46,-3.6524 16.09,-3.6524 1.82,0 3.65,0.1172 5.47,0.3438 1.83,0.2304 3.73,0.5742 5.71,1.0234 5.93,1.2227 11.68,3.3125 17.23,6.2813 5.55,2.9687 10.16,6.2656 13.81,9.9296 z m -107.73,20.9961 c -1.37,-7.9101 -4.72,-14.6875 -10.04,-20.3125 -5.33,-5.6328 -12.26,-8.4375 -20.78,-8.4375 l -0.68,0.2149 -0.35,0.125 -0.34,0.1094 -0.45,0 c -10.8,0.3007 -18.76,4.4843 -23.85,12.5507 -5.1,8.0664 -8.03,16.9024 -8.79,26.4844 -0.15,0.918 -0.23,1.7773 -0.23,2.625 0,0.832 0,1.7109 0,2.6172 l 0,1.3672 0.23,1.3789 0,2.5078 c 0.46,12.324 3.8,21.758 10.05,28.313 6.23,6.531 13.08,10.339 20.54,11.394 l 2.17,0.129 2.17,0.105 0.91,0 c 6.39,-0.144 12.39,-2.39 18.03,-6.726 5.63,-4.348 9.05,-10.617 10.27,-18.828 l 11.87,0 c -0.61,11.707 -5.18,20.679 -13.7,26.922 -8.53,6.242 -17.88,9.367 -28.08,9.367 l -2.39,-0.117 -2.4,-0.122 c -10.5,-1.062 -20.16,-6.082 -28.98,-15.054 -8.83,-8.988 -13.24,-22.363 -13.24,-40.176 l 0,-1.8281 0.23,-1.8242 0,-3.8789 c 0.91,-15.3711 5.78,-26.9844 14.6,-34.8047 8.83,-7.8399 18.41,-12.0586 28.76,-12.6758 l 1.72,-0.2226 2.4,0 c 10.04,0.1562 19.35,3.5351 27.95,10.1562 8.6,6.6211 13.43,16.1719 14.49,28.6406 l -12.09,0 z m -244.23,-36.5234 12.1,0 0,65.5199 c 0.3,8.054 2.89,15.214 7.76,21.445 4.87,6.238 11.57,9.668 20.09,10.281 l 3.65,0 c 7.61,0 13.2,-2.402 16.78,-7.195 3.57,-4.797 5.36,-10.918 5.36,-18.379 l 0,-71.6719 12.33,0 0,66.2029 c 0,8.055 2.4,15.176 7.18,21.336 4.8,6.164 11.38,9.551 19.75,10.156 l 2.97,0 c 7.76,0 13.46,-2.011 17.11,-6.046 3.66,-4.04 5.49,-9.93 5.49,-17.692 l 0.22,-0.449 0.12,-0.344 0.11,-0.344 0,-72.8199 12.55,0 0,73.9569 c 0,9.285 -2.01,17.012 -6.04,23.164 -4.04,6.172 -11.15,9.781 -21.35,10.848 l -1.82,0 -0.8,0.117 -0.8,0.105 -1.71,0.122 -1.48,0.117 c -7.46,0 -14.05,-1.758 -19.75,-5.254 -5.7,-3.508 -10.54,-8.672 -14.49,-15.527 -1.99,6.855 -5.71,12.019 -11.19,15.527 -5.48,3.496 -11.79,5.254 -18.94,5.254 -7.61,0 -14.15,-1.719 -19.63,-5.137 -5.48,-3.43 -10.2,-8.418 -14.15,-14.953 l 0,17.578 -11.42,0 0,-105.9179 z m -106.13,0 12.55,0 0,62.5509 c 0,9.89 2.81,18.223 8.45,24.988 5.63,6.77 13.76,10.156 24.42,10.156 10.5,0 17.23,-2.781 20.2,-8.332 2.97,-5.554 4.45,-12.507 4.45,-20.886 l 0,-68.4769 12.78,0 0,68.7109 c 0,9.883 -1.52,18.41 -4.56,25.559 -3.05,7.156 -10.66,11.714 -22.83,13.699 l -1.36,0.222 -1.38,0 c -0.91,0.161 -1.82,0.239 -2.73,0.239 -0.92,0 -1.83,0 -2.75,0 -7.15,0 -13.84,-1.602 -20.08,-4.797 -6.24,-3.192 -11.41,-8.145 -15.52,-14.844 l 0,17.129 -11.64,0 0,-105.9179 z m -60.94,12.1016 c -1.83,-0.6172 -3.93,-1.2618 -6.28,-1.9454 -2.36,-0.6835 -4.84,-1.1796 -7.42,-1.4726 l -2.4,-0.1172 -2.39,-0.1094 -1.83,0 c -3.2,0.1367 -6.28,0.8203 -9.24,2.043 -2.97,1.2187 -5.52,2.8906 -7.65,5.0273 -0.91,0.9102 -1.75,1.9336 -2.5,3.086 -0.77,1.1328 -1.38,2.2383 -1.84,3.3008 -0.31,0.9179 -0.53,1.7968 -0.68,2.6289 l -0.23,2.3984 c 0,4.418 1.75,8.5977 5.25,12.5508 3.5,3.9531 7.46,6.5429 11.87,7.7656 3.2,1.0625 6.51,1.8516 9.93,2.3906 3.43,0.5391 6.81,1.0274 10.16,1.4844 l 1.25,0.2344 1.26,0.2265 c 3.65,0.4571 7.26,0.9454 10.84,1.4844 3.57,0.5352 7.11,1.3242 10.62,2.3906 l 0,-8.4453 c 0,-7.4609 -1,-14.1914 -2.98,-20.1953 -1.97,-6.0156 -7.22,-10.9297 -15.74,-14.7265 z m 19.39,3.4257 -0.45,-1.1406 c 0,-5.9297 1.48,-9.8633 4.45,-11.7578 2.97,-1.8945 6.66,-2.8438 11.07,-2.8438 0.91,0 1.86,0 2.85,0 1,0 2.02,0.0704 3.09,0.2149 l 2.96,0 0,9.3633 -0.68,0 -0.69,-0.2305 -0.68,0 -1.14,-0.1094 -0.91,-0.1172 c -3.05,0 -5.14,0.8008 -6.28,2.4024 -1.14,1.5898 -1.71,4.5234 -1.71,8.7812 l 0,56.3751 c 0,10.801 -3.96,18.879 -11.88,24.199 -7.91,5.32 -16.66,8 -26.24,8 l -3.2,0 c -9.73,-0.617 -18.64,-3.859 -26.7,-9.707 -8.07,-5.859 -12.32,-14.043 -12.79,-24.543 l 12.33,0 c 0.6,7.754 3.88,13.699 9.82,17.805 5.93,4.109 12.47,6.16 19.62,6.16 l 2.18,0 1.93,-0.227 c 2.74,-0.308 5.48,-0.878 8.22,-1.714 2.74,-0.84 5.17,-2.012 7.31,-3.539 1.67,-1.219 3.08,-2.997 4.22,-5.36 1.14,-2.351 1.94,-4.832 2.39,-7.41 l 0.34,-2.18 0.12,-2.168 c 0,-2.734 -0.61,-5.281 -1.83,-7.644 -1.22,-2.356 -3.34,-3.848 -6.39,-4.453 -2.58,-0.45 -5.17,-0.832 -7.76,-1.133 -2.59,-0.305 -5.24,-0.617 -7.98,-0.918 l -1.83,-0.227 -1.83,-0.234 c -5.02,-0.605 -10,-1.367 -14.95,-2.273 -4.94,-0.918 -9.63,-2.434 -14.03,-4.5708 -5.33,-2.4336 -9.55,-6.125 -12.67,-11.0664 -3.13,-4.9414 -4.68,-10.2344 -4.68,-15.8672 l 0.11,-2.2851 0.34,-2.2774 c 0.3,-1.5234 0.72,-3.0469 1.26,-4.5586 0.53,-1.5234 1.18,-3.0586 1.94,-4.5703 3.2,-5.625 7.34,-9.668 12.44,-12.1015 5.1,-2.4297 10.46,-3.6524 16.1,-3.6524 1.82,0 3.64,0.1172 5.47,0.3438 1.83,0.2304 3.73,0.5742 5.71,1.0234 5.93,1.2227 11.67,3.3125 17.23,6.2813 5.55,2.9687 10.15,6.2656 13.8,9.9296 z m -107.95,-15.5273 12.1,0 0,146.5349 -12.1,0 0,-146.5349 z m -34.7,0 12.1,0 0,146.5349 -12.1,0 0,-146.5349 z m -63.447,12.1016 c -1.828,-0.6172 -3.918,-1.2618 -6.273,-1.9454 -2.368,-0.6835 -4.836,-1.1796 -7.422,-1.4726 l -2.399,-0.1172 -2.394,-0.1094 -1.824,0 c -3.196,0.1367 -6.282,0.8203 -9.246,2.043 -2.965,1.2187 -5.516,2.8906 -7.645,5.0273 -0.914,0.9102 -1.754,1.9336 -2.512,3.086 -0.765,1.1328 -1.371,2.2383 -1.828,3.3008 -0.305,0.9179 -0.531,1.7968 -0.683,2.6289 l -0.227,2.3984 c 0,4.418 1.75,8.5977 5.25,12.5508 3.5,3.9531 7.457,6.5429 11.863,7.7656 3.199,1.0625 6.512,1.8516 9.934,2.3906 3.422,0.5391 6.808,1.0274 10.156,1.4844 l 1.254,0.2344 1.258,0.2265 c 3.648,0.4571 7.265,0.9454 10.84,1.4844 3.578,0.5352 7.113,1.3242 10.617,2.3906 l 0,-8.4453 c 0,-7.4609 -0.988,-14.1914 -2.973,-20.1953 -1.972,-6.0156 -7.226,-10.9297 -15.746,-14.7265 z m 19.399,3.4257 -0.454,-1.1406 c 0,-5.9297 1.485,-9.8633 4.45,-11.7578 2.964,-1.8945 6.66,-2.8438 11.074,-2.8438 0.91,0 1.863,0 2.848,0 0.992,0 2.011,0.0704 3.082,0.2149 l 2.968,0 0,9.3633 -0.683,0 -0.688,-0.2305 -0.683,0 -1.137,-0.1094 -0.914,-0.1172 c -3.047,0 -5.137,0.8008 -6.274,2.4024 -1.148,1.5898 -1.714,4.5234 -1.714,8.7812 l 0,56.3751 c 0,10.801 -3.961,18.879 -11.875,24.199 -7.911,5.32 -16.657,8 -26.247,8 l -3.199,0 c -9.734,-0.617 -18.64,-3.859 -26.695,-9.707 -8.074,-5.859 -12.332,-14.043 -12.789,-24.543 l 12.328,0 c 0.605,7.754 3.879,13.699 9.809,17.805 5.945,4.109 12.48,6.16 19.632,6.16 l 2.168,0 1.942,-0.227 c 2.742,-0.308 5.476,-0.878 8.219,-1.714 2.738,-0.84 5.171,-2.012 7.3,-3.539 1.672,-1.219 3.082,-2.997 4.223,-5.36 1.145,-2.351 1.945,-4.832 2.398,-7.41 l 0.344,-2.18 0.113,-2.168 c 0,-2.734 -0.605,-5.281 -1.828,-7.644 -1.218,-2.356 -3.343,-3.848 -6.386,-4.453 -2.586,-0.45 -5.18,-0.832 -7.762,-1.133 -2.59,-0.305 -5.25,-0.617 -7.988,-0.918 l -1.829,-0.227 -1.824,-0.234 c -5.023,-0.605 -10.011,-1.367 -14.953,-2.273 -4.945,-0.918 -9.625,-2.434 -14.035,-4.5708 -5.328,-2.4336 -9.555,-6.125 -12.668,-11.0664 -3.121,-4.9414 -4.68,-10.2344 -4.68,-15.8672 l 0.114,-2.2851 0.343,-2.2774 c 0.301,-1.5234 0.715,-3.0469 1.258,-4.5586 0.528,-1.5234 1.172,-3.0586 1.942,-4.5703 3.191,-5.625 7.336,-9.668 12.433,-12.1015 5.098,-2.4297 10.465,-3.6524 16.094,-3.6524 1.828,0 3.652,0.1172 5.476,0.3438 1.829,0.2304 3.731,0.5742 5.707,1.0234 5.938,1.2227 11.68,3.3125 17.235,6.2813 5.547,2.9687 10.152,6.2656 13.805,9.9296 z m -173.692,70.3046 0,18.027 -13.691,0 0,-18.027 13.691,0 z m -13.691,-85.8319 13.691,0 0,18.0391 -13.691,0 0,-18.0391 z m -78.52,-20.3125 47.016,126.2304 -12.547,0 -33.785,-90.3906 -34.008,90.3906 -13.016,0 41.09,-106.3671 c -0.609,-1.668 -1.261,-3.5742 -1.937,-5.7031 -0.684,-2.1368 -1.485,-4.3438 -2.399,-6.6211 -1.07,-3.2032 -2.324,-6.2032 -3.769,-9.0118 -1.446,-2.8242 -3.082,-4.9921 -4.906,-6.5156 -0.911,-0.7617 -1.907,-1.3672 -2.965,-1.8164 -1.071,-0.4687 -2.207,-0.7734 -3.426,-0.918 l -2.281,-0.3398 -2.055,-0.1172 -1.941,0.1172 -1.938,0.3398 -0.914,0 -1.715,0.3438 -1.48,-0.1172 0,-11.18359 0.918,-0.11719 0.906,-0.10547 1.371,0 c 1.066,-0.15625 2.125,-0.26563 3.195,-0.34375 1.063,-0.08594 1.973,-0.11719 2.739,-0.11719 6.695,0 12.363,1.90625 17.007,5.70313 4.637,3.80856 8.25,9.36716 10.84,16.66016 z m -75.324,72.8125 c 0,-11.4141 -2.66,-21.6484 -7.98,-30.6914 -5.333,-9.0625 -14.465,-13.5859 -27.395,-13.5859 -12.934,0 -22.141,4.5624 -27.621,13.6914 -5.477,9.1328 -8.215,19.4726 -8.215,31.0468 l -0.226,0.4571 -0.114,0.3437 -0.117,0.3399 c 0,11.7183 2.891,21.9143 8.672,30.5863 5.785,8.671 14.762,13.007 26.933,13.007 l 4.797,0 c 11.411,-1.062 19.438,-6.015 24.079,-14.843 4.64,-8.817 7.039,-18.489 7.187,-28.9847 l 0,-1.3672 z m -83.078,-52.5 12.094,0 0,18.4844 c 3.5,-6.5313 8.445,-11.5977 14.839,-15.1641 6.383,-3.5859 13.157,-5.4375 20.313,-5.5937 l 1.602,0.2226 c 16.121,0 28.031,5.4805 35.714,16.4375 7.688,10.957 11.532,23.8047 11.532,38.5742 0,14.598 -3.735,27.508 -11.188,38.688 -7.457,11.183 -19.25,16.781 -35.379,16.781 -8.523,0 -15.828,-1.758 -21.906,-5.254 -6.094,-3.508 -11.266,-8.82 -15.527,-15.981 l 0,59.34 -12.094,0 0,-146.5349 z m -174.609,33.332 c 0.148,-11.8672 4.57,-20.7734 13.242,-26.7109 8.672,-5.9375 18.179,-8.8945 28.527,-8.8945 1.52,0 3.082,0.0664 4.68,0.2226 1.601,0.1563 3.16,0.3828 4.679,0.6836 3.2,0.4609 6.356,1.2227 9.477,2.2852 3.113,1.0547 5.969,2.3554 8.559,3.8789 3.953,2.7422 6.96,6.1992 9.015,10.3906 2.055,4.1758 3.078,8.6289 3.078,13.3476 l 0,1.836 -0.23,1.8164 -0.11,1.5898 -0.343,1.836 c -1.367,5.7734 -4.414,10.1601 -9.129,13.1172 -4.719,2.9804 -9.742,5.2265 -15.067,6.7382 -1.218,0.3047 -2.39,0.6052 -3.539,0.9102 -1.136,0.301 -2.246,0.605 -3.304,0.918 l -1.946,0.457 -2.168,0.461 c -1.523,0.301 -3.082,0.644 -4.675,1.023 -1.602,0.371 -3.239,0.715 -4.911,1.028 -4.414,1.062 -8.523,2.508 -12.328,4.336 -3.8,1.824 -6.386,4.558 -7.757,8.218 -0.606,1.36 -1.067,2.7 -1.368,3.989 -0.308,1.289 -0.461,2.468 -0.461,3.543 0,4.707 2.176,8.476 6.512,11.297 4.336,2.816 9.16,4.589 14.492,5.363 0.91,0 1.785,0.039 2.621,0.109 l 2.399,0.125 1.484,0 1.707,-0.234 c 1.371,0 2.699,-0.11 4,-0.34 1.293,-0.234 2.473,-0.5 3.539,-0.801 4.864,-1.68 8.563,-4.414 11.067,-8.222 2.511,-3.801 3.992,-8.137 4.453,-13 l 12.555,0 c -0.77,11.105 -5.098,19.511 -13.016,25.214 -7.91,5.715 -16.586,8.633 -26.016,8.801 l -0.683,0 c -1.071,0 -2.211,-0.051 -3.426,-0.129 -1.223,-0.078 -2.363,-0.183 -3.426,-0.344 -2.738,-0.445 -5.363,-1.101 -7.875,-1.929 -2.508,-0.852 -4.828,-1.867 -6.961,-3.086 -4.719,-2.59 -8.449,-6.164 -11.183,-10.723 -2.739,-4.57 -4.11,-9.367 -4.11,-14.386 0,-0.762 0.078,-1.641 0.231,-2.626 0.148,-0.988 0.375,-1.933 0.679,-2.851 l 0.118,-0.449 0.121,-0.684 0.339,-0.812 0.11,-0.789 c 1.828,-5.938 5.293,-10.352 10.39,-13.247 5.094,-2.8862 10.458,-5.0933 16.09,-6.6206 1.672,-0.4453 3.348,-0.8789 5.016,-1.2578 1.676,-0.3789 3.348,-0.7227 5.023,-1.0235 l 1.371,-0.3437 1.372,-0.3399 c 1.214,-0.1601 2.472,-0.375 3.769,-0.6836 1.289,-0.3047 2.621,-0.6054 3.992,-0.9101 3.801,-0.918 7.375,-2.2461 10.723,-4.0039 3.348,-1.7383 5.637,-4.3633 6.852,-7.8594 l 0.339,-1.0391 0.114,-1.2578 0.343,-1.8164 0.118,-1.6015 c 0,-3.4961 -1.071,-6.7774 -3.196,-9.8125 -2.136,-3.0508 -4.945,-5.254 -8.445,-6.6211 -1.223,-0.4493 -2.59,-0.918 -4.113,-1.3672 -1.524,-0.461 -3.039,-0.8399 -4.567,-1.1446 -1.062,-0.3125 -2.129,-0.4882 -3.191,-0.5742 -1.067,-0.0781 -2.133,-0.1093 -3.199,-0.1093 -7.453,0 -14.301,2.1679 -20.539,6.5117 -6.243,4.3281 -9.512,10.5312 -9.817,18.5976 l -12.097,0 z m -105.446,-33.332 12.555,0 0,62.5509 c 0,9.89 2.816,18.223 8.445,24.988 5.625,6.77 13.77,10.156 24.418,10.156 10.5,0 17.238,-2.781 20.199,-8.332 2.969,-5.554 4.453,-12.507 4.453,-20.886 l 0,-68.4769 12.786,0 0,68.7109 c 0,9.883 -1.524,18.41 -4.567,25.559 -3.047,7.156 -10.652,11.714 -22.82,13.699 l -1.371,0.222 -1.375,0 c -0.906,0.161 -1.824,0.239 -2.738,0.239 -0.915,0 -1.821,0 -2.739,0 -7.152,0 -13.847,-1.602 -20.086,-4.797 -6.238,-3.192 -11.414,-8.145 -15.519,-14.844 l 0,17.129 -11.641,0 0,-105.9179 z m -34.234,42.2344 c -1.07,-9.7461 -4.723,-17.8399 -10.957,-24.3047 -6.239,-6.4727 -14.309,-9.707 -24.199,-9.707 -12.477,0 -21.567,4.414 -27.27,13.2421 -5.711,8.8203 -8.566,18.7891 -8.566,29.9024 l 0,0.4492 0.234,0.4492 0,1.1524 -0.234,0.3437 0,0.3399 c 0,11.4183 2.933,21.5353 8.789,30.3633 5.859,8.816 14.875,13.23 27.047,13.23 l 4.113,0 c 10.957,-0.918 18.754,-5.437 23.394,-13.586 4.641,-8.132 7.27,-17 7.879,-26.582 l 0.223,-2.398 c 0,-0.832 0,-1.7109 0,-2.6289 0,-0.7617 0,-1.5899 0,-2.5117 0,-0.918 0,-1.7461 0,-2.5078 0,-0.9102 -0.039,-1.8282 -0.109,-2.7344 -0.082,-0.918 -0.2,-1.7578 -0.344,-2.5117 z M 148.215,97.082 c 0,-15.6758 3.847,-28.7617 11.531,-39.2578 7.68,-10.5117 19.965,-15.7539 36.856,-15.7539 16.738,0 29.066,5.2422 36.984,15.7539 7.902,10.4961 11.863,23.582 11.863,39.2578 l 0,2.2852 c -0.308,12.1678 -3.418,23.5158 -9.359,34.0118 -5.934,10.5 -15.668,16.66 -29.211,18.488 l -1.828,0.106 -1.824,0.117 c -1.372,0.144 -2.665,0.265 -3.879,0.344 -1.223,0.078 -2.36,0.117 -3.426,0.117 -15.524,0 -27.36,-5.059 -35.496,-15.188 -8.141,-10.117 -12.211,-23.547 -12.211,-40.281 z M 114.438,80.6445 C 113.07,72.7344 109.723,65.957 104.395,60.332 99.0664,54.6992 92.1445,51.8945 83.6211,51.8945 l -0.6875,0.2149 -0.3398,0.125 -0.3438,0.1094 -0.4531,0 c -10.8047,0.3007 -18.7617,4.4843 -23.8516,12.5507 -5.1015,8.0664 -8.0273,16.9024 -8.7891,26.4844 -0.1523,0.918 -0.2265,1.7773 -0.2265,2.625 0,0.832 0,1.7109 0,2.6172 l 0,1.3672 0.2265,1.3789 0,2.5078 c 0.4571,12.324 3.8047,21.758 10.043,28.313 6.2344,6.531 13.0899,10.339 20.543,11.394 l 2.1719,0.129 2.1679,0.105 0.9063,0 c 6.3945,-0.144 12.4062,-2.39 18.0387,-6.726 5.625,-4.348 9.047,-10.617 10.27,-18.828 l 11.871,0 c -0.613,11.707 -5.18,20.679 -13.699,26.922 -8.524,6.242 -17.8792,9.367 -28.0745,9.367 l -2.3984,-0.117 -2.3984,-0.122 C 68.1016,151.25 58.4375,146.23 49.6133,137.258 40.793,128.27 36.3789,114.895 36.3789,97.082 l 0,-1.8281 0.2227,-1.8242 0,-3.8789 C 37.5156,74.1797 42.3867,62.5664 51.2109,54.7461 60.0391,46.9062 69.625,42.6875 79.9727,42.0703 l 1.7109,-0.2226 2.3984,0 c 10.043,0.1562 19.359,3.5351 27.961,10.1562 8.594,6.6211 13.426,16.1719 14.488,28.6406 l -12.093,0 z m -98.8286,91.7575 0,18.254 -12.09768,0 0,-18.254 12.09768,0 z M 3.51172,44.1211 l 12.09768,0 0,105.9179 -12.09768,0 0,-105.9179" /></g></g></svg>