<?xml version="1.0" encoding="utf-8"?>
<!-- Generator: Adobe Illustrator 16.0.0, SVG Export Plug-In . SVG Version: 6.00 Build 0)  -->
<!DOCTYPE svg PUBLIC "-//W3C//DTD SVG 1.1//EN" "http://www.w3.org/Graphics/SVG/1.1/DTD/svg11.dtd">
<svg version="1.1" id="Layer_2_1_" xmlns="http://www.w3.org/2000/svg" xmlns:xlink="http://www.w3.org/1999/xlink" x="0px" y="0px"
	 width="76.172px" height="75.785px" viewBox="0 0 76.172 75.785" enable-background="new 0 0 76.172 75.785" xml:space="preserve">
<path fill="#3B5998" d="M75.756,6.688v62.096c0,3.8-3.169,6.968-6.975,6.968H50.411V44.072h11.088l1.585-9.503H50.411v-7.286
	c0-2.854,2.531-5.387,5.383-5.387h4.122V12.39h-9.505c-9.505,0-12.675,4.753-12.675,12.673v9.505h-9.504v9.503h9.504v31.681H6.688
	c-3.803,0-6.97-3.168-6.97-6.968V6.688c0-3.803,3.167-6.97,6.97-6.97h62.093C72.587-0.282,75.756,2.886,75.756,6.688z"/>
</svg>
