<?xml version="1.0" encoding="utf-8"?>
<!-- Generator: Adobe Illustrator 16.0.0, SVG Export Plug-In . SVG Version: 6.00 Build 0)  -->
<!DOCTYPE svg PUBLIC "-//W3C//DTD SVG 1.1//EN" "http://www.w3.org/Graphics/SVG/1.1/DTD/svg11.dtd">
<svg version="1.1" id="Layer_1" xmlns="http://www.w3.org/2000/svg" xmlns:xlink="http://www.w3.org/1999/xlink" x="0px" y="0px"
	 width="76.172px" height="75.785px" viewBox="0 0 76.172 75.785" enable-background="new 0 0 76.172 75.785" xml:space="preserve">
<g>
	<path fill="#444444" d="M73.092,31.931c-0.297-0.351-0.734-0.553-1.193-0.553H4.563c-0.459,0-0.896,0.202-1.192,0.553
		c-0.297,0.352-0.425,0.814-0.35,1.269l4.621,27.79C7.929,62.733,9.421,64,11.189,64h54.084c1.768,0,3.26-1.267,3.547-3.009
		l4.621-27.792C73.518,32.745,73.389,32.282,73.092,31.931z"/>
	<path fill="#444444" d="M67.74,18.798c0-1.197-0.973-2.169-2.172-2.169H33.371V13.49c0-1.199-0.971-2.17-2.17-2.17H10.892
		c-1.198,0-2.169,0.972-2.169,2.17v12.888H67.74V18.798L67.74,18.798z"/>
</g>
</svg>
