<?xml version="1.0" encoding="utf-8"?>
<!-- Generator: Adobe Illustrator 16.0.0, SVG Export Plug-In . SVG Version: 6.00 Build 0)  -->
<!DOCTYPE svg PUBLIC "-//W3C//DTD SVG 1.1//EN" "http://www.w3.org/Graphics/SVG/1.1/DTD/svg11.dtd">
<svg version="1.1" xmlns="http://www.w3.org/2000/svg" xmlns:xlink="http://www.w3.org/1999/xlink" x="0px" y="0px"
	 width="76.173px" height="75.784px" viewBox="0 0 76.173 75.784" enable-background="new 0 0 76.173 75.784" xml:space="preserve">
<g id="Layer_1" display="none">
	<rect x="0.574" y="0.348" display="inline" fill="#32669A" width="75.361" height="75.362"/>
	<polygon display="inline" fill="#231F20" points="0.574,75.709 0.574,75.784 76.009,75.784 76.009,0.272 0.499,0.272 0.499,75.784 
		0.574,75.784 0.574,75.709 0.649,75.709 0.649,0.423 75.859,0.423 75.859,75.633 0.574,75.633 0.574,75.709 0.649,75.709 	"/>
	<path display="inline" fill="#FFFFFF" d="M19.81,13.213h36.892c3.505,0,6.37,2.866,6.37,6.371v36.891
		c0,3.504-2.865,6.369-6.37,6.369H19.81c-3.505,0-6.373-2.865-6.373-6.369V19.584C13.437,16.079,16.305,13.213,19.81,13.213z
		 M49.595,18.725c-1.23,0-2.234,1.008-2.234,2.238v5.346c0,1.23,1.004,2.236,2.234,2.236h5.609c1.229,0,2.234-1.005,2.234-2.236
		v-5.346c0-1.23-1.006-2.238-2.234-2.238H49.595z M57.46,34.201h-4.367c0.414,1.353,0.639,2.779,0.639,4.262
		c0,8.253-6.91,14.947-15.431,14.947c-8.519,0-15.429-6.694-15.429-14.947c0-1.483,0.226-2.909,0.638-4.262h-4.556v20.967
		c0,1.086,0.886,1.97,1.971,1.97H55.49c1.086,0,1.971-0.884,1.971-1.97V34.201z M38.301,28.263c-5.503,0-9.967,4.323-9.967,9.66
		c0,5.332,4.463,9.658,9.967,9.658c5.506,0,9.97-4.326,9.97-9.658C48.271,32.586,43.807,28.263,38.301,28.263z"/>
</g>
<g id="Layer_2" display="none">
	<rect display="inline" fill="#2AA8E0" width="75.361" height="75.362"/>
	<path display="inline" fill="#FFFFFF" d="M62.799,22.1c-1.849,0.82-3.836,1.375-5.92,1.623c2.128-1.276,3.765-3.294,4.532-5.702
		c-1.989,1.181-4.194,2.04-6.543,2.502c-1.882-2.005-4.562-3.256-7.525-3.256c-5.692,0-10.308,4.616-10.308,10.307
		c0,0.81,0.091,1.594,0.266,2.348c-8.565-0.428-16.159-4.531-21.245-10.77c-0.886,1.525-1.395,3.294-1.395,5.184
		c0,3.575,1.819,6.732,4.583,8.579c-1.688-0.052-3.277-0.519-4.667-1.29v0.13c0,4.993,3.554,9.16,8.267,10.107
		c-0.864,0.234-1.777,0.363-2.716,0.363c-0.663,0-1.311-0.066-1.938-0.188c1.311,4.096,5.117,7.074,9.627,7.16
		c-3.525,2.764-7.969,4.412-12.802,4.412c-0.831,0-1.65-0.051-2.457-0.145c4.561,2.922,9.979,4.629,15.802,4.629
		c18.958,0,29.325-15.703,29.325-29.325c0-0.445-0.012-0.89-0.028-1.335C59.668,25.983,61.415,24.167,62.799,22.1z"/>
</g>
<g id="Layer_3" display="none">
	<rect x="0.574" display="inline" fill="#017BB6" width="75.361" height="75.36"/>
	<path display="inline" fill="#FFFFFF" d="M13.469,29.092h10.633V63.25H13.469V29.092z M18.789,12.111
		c3.399,0,6.156,2.76,6.156,6.154c0,3.397-2.756,6.157-6.156,6.157c-3.412,0-6.163-2.76-6.163-6.157
		C12.626,14.872,15.377,12.111,18.789,12.111"/>
	<path display="inline" fill="#FFFFFF" d="M30.767,29.092H40.95v4.668h0.145c1.416-2.688,4.884-5.518,10.052-5.518
		c10.748,0,12.736,7.071,12.736,16.271V63.25H53.269V46.643c0-3.965-0.078-9.061-5.521-9.061c-5.528,0-6.371,4.315-6.371,8.768v16.9
		H30.767V29.092z"/>
</g>
<g id="Layer_4">
	<rect x="0.431" y="0.352" fill="#181617" width="75.359" height="75.361"/>
	<path fill="#FFFFFF" d="M38.111,12.504c-14.457,0-26.178,11.719-26.178,26.182c0,11.561,7.498,21.371,17.902,24.836
		c1.311,0.238,1.788-0.572,1.788-1.264c0-0.621-0.021-2.268-0.036-4.453c-7.281,1.582-8.816-3.508-8.816-3.508
		c-1.191-3.023-2.908-3.826-2.908-3.826c-2.376-1.627,0.182-1.594,0.182-1.594c2.629,0.186,4.011,2.697,4.011,2.697
		c2.333,4.002,6.126,2.842,7.619,2.174c0.235-1.693,0.911-2.842,1.659-3.498C27.52,49.592,21.41,47.34,21.41,37.311
		c0-2.854,1.021-5.193,2.692-7.021c-0.268-0.664-1.165-3.324,0.259-6.93c0,0,2.195-0.703,7.198,2.686
		c2.088-0.582,4.33-0.873,6.554-0.883c2.224,0.01,4.464,0.301,6.552,0.883c5.001-3.389,7.196-2.686,7.196-2.686
		c1.426,3.605,0.528,6.266,0.258,6.93c1.675,1.828,2.691,4.168,2.691,7.021c0,10.059-6.123,12.271-11.954,12.92
		c0.938,0.809,1.778,2.402,1.778,4.846c0,3.5-0.032,6.322-0.032,7.182c0,0.699,0.474,1.512,1.801,1.256
		c10.392-3.465,17.886-13.271,17.886-24.828C64.289,24.223,52.572,12.504,38.111,12.504"/>
</g>
<g id="Layer_5" display="none">
	<rect x="0.173" y="0.256" display="inline" fill="#EB622F" width="75" height="75"/>
	<path display="inline" fill="#FFFFFF" d="M14.041,8.045l4.566,51.219l20.491,5.689l20.546-5.697l4.574-51.211H14.041z
		 M54.693,20.202l-0.285,3.184l-0.127,1.412h-0.021h-15.13h-0.021h-8.866l0.575,6.434h8.291h0.021h12.888h1.69l-0.153,1.686
		l-1.476,16.539l-0.094,1.061l-12.855,3.564l-0.028,0.006l-12.867-3.57l-0.879-9.865h2.904h3.4l0.447,5.012l6.995,1.889h0.007
		l7.004-1.893l0.73-8.145h-7.714h-0.021H25.074l-1.545-17.312l-0.15-1.686h15.73h0.021h15.714L54.693,20.202z"/>
</g>
<g id="Layer_6" display="none">
	<rect x="0.173" y="0.256" display="inline" fill="#149BD2" width="76" height="75"/>
	<path display="inline" fill="#FFFFFF" d="M14.679,7.624l4.768,51.646l20.656,5.561l20.657-5.564l4.767-51.643H14.679z
		 M55.289,24.358l-15.207,6.506l-0.037,0.012h14.707l-1.683,19.344l-12.966,3.785l-13.035-3.857l-0.835-9.738h6.446l0.422,5.045
		l6.938,1.754l7.219-2.035l0.488-8.127l-21.933-0.072v-0.008l-0.024,0.008L25.3,30.875l14.785-6.156l0.861-0.361h-0.861H24.738
		l-0.772-6.232h16.116h15.838L55.289,24.358z"/>
</g>
</svg>
