<?xml version="1.0" encoding="utf-8"?>
<!-- Generator: Adobe Illustrator 16.0.0, SVG Export Plug-In . SVG Version: 6.00 Build 0)  -->
<!DOCTYPE svg PUBLIC "-//W3C//DTD SVG 1.1//EN" "http://www.w3.org/Graphics/SVG/1.1/DTD/svg11.dtd">
<svg version="1.1" xmlns="http://www.w3.org/2000/svg" xmlns:xlink="http://www.w3.org/1999/xlink" x="0px" y="0px"
	 width="76.172px" height="75.785px" viewBox="0 0 76.172 75.785" enable-background="new 0 0 76.172 75.785" xml:space="preserve">
<g id="Layer_1" display="none">
	<g display="inline">
		<path fill="#444444" d="M73.092,31.931c-0.297-0.351-0.734-0.553-1.193-0.553H4.563c-0.459,0-0.896,0.202-1.192,0.553
			c-0.297,0.352-0.425,0.814-0.35,1.269l4.621,27.79C7.929,62.733,9.421,64,11.189,64h54.084c1.768,0,3.26-1.267,3.547-3.009
			l4.621-27.792C73.518,32.745,73.389,32.282,73.092,31.931z"/>
		<path fill="#444444" d="M67.74,18.798c0-1.197-0.973-2.169-2.172-2.169H33.371V13.49c0-1.199-0.971-2.17-2.17-2.17H10.892
			c-1.198,0-2.169,0.972-2.169,2.17v12.888H67.74V18.798L67.74,18.798z"/>
	</g>
</g>
<g id="Layer_2">
	<g>
		<path fill="#DD4B39" d="M49.709,3.004H32.861c-7.509,0-12.705,1.646-17.383,5.51C11.8,11.688,9.604,16.3,9.604,20.853
			c0,7.014,5.349,14.469,15.258,14.469c0.954,0,2.008-0.098,2.939-0.185l-0.137,0.333c-0.398,0.955-0.776,1.854-0.776,3.26
			c0,2.737,1.32,4.423,2.597,6.056l0.161,0.206l-0.285,0.019c-4.093,0.281-11.71,0.802-17.273,4.223
			c-6.572,3.909-7.082,9.591-7.082,11.238c0,6.56,6.11,13.178,19.765,13.178c15.876,0,24.183-8.758,24.183-17.411
			c0.003-6.398-3.75-9.558-7.733-12.911l-3.358-2.613c-1.039-0.861-2.332-1.932-2.332-3.915c0-1.95,1.293-3.238,2.434-4.372
			l0.12-0.121c3.627-2.858,7.74-6.098,7.74-13.107c0-7.046-4.403-10.688-6.52-12.438h5.59c0.069,0,0.137-0.019,0.194-0.056
			l4.816-3.027c0.137-0.087,0.201-0.254,0.154-0.41C50.014,3.111,49.87,3.004,49.709,3.004z M29.277,69.788
			c-9.678,0-16.18-4.52-16.18-11.247c0-4.393,2.66-7.585,7.897-9.482c4.195-1.411,9.609-1.482,9.663-1.482
			c0.917,0,1.379,0,2.111,0.092c6.773,4.818,10.027,7.35,10.027,12.169C42.795,65.976,37.615,69.788,29.277,69.788z M29.187,32.74
			c-8.123,0-11.494-10.677-11.494-16.393c0-2.907,0.661-5.138,2.021-6.823c1.476-1.846,4.003-3.039,6.439-3.039
			c7.457,0,11.58,10.024,11.58,16.951c0,1.093,0,4.418-2.296,6.728C33.893,31.704,31.38,32.74,29.187,32.74z"/>
		<path fill="#DD4B39" d="M73.321,35.999h-8.878v-8.846c0-0.202-0.163-0.365-0.365-0.365h-3.819c-0.2,0-0.364,0.164-0.364,0.365
			v8.846h-8.832c-0.202,0-0.365,0.164-0.365,0.365v3.87c0,0.202,0.163,0.365,0.365,0.365h8.832v8.902
			c0,0.201,0.164,0.366,0.364,0.366h3.819c0.202,0,0.365-0.165,0.365-0.366v-8.903h8.878c0.204,0,0.365-0.164,0.365-0.365v-3.869
			C73.687,36.162,73.525,35.999,73.321,35.999z"/>
	</g>
</g>
</svg>
