<?xml version="1.0" encoding="utf-8"?>
<!-- Generator: Adobe Illustrator 16.0.0, SVG Export Plug-In . SVG Version: 6.00 Build 0)  -->
<!DOCTYPE svg PUBLIC "-//W3C//DTD SVG 1.1//EN" "http://www.w3.org/Graphics/SVG/1.1/DTD/svg11.dtd">
<svg version="1.1" id="Layer_1" xmlns="http://www.w3.org/2000/svg" xmlns:xlink="http://www.w3.org/1999/xlink" x="0px" y="0px"
	 width="76.172px" height="75.785px" viewBox="0 0 76.172 75.785" enable-background="new 0 0 76.172 75.785" xml:space="preserve">
<g id="Layer_3">
	<path fill="#444444" d="M68.23,7.6H49.452c-3.445,0-8.254,1.992-10.688,4.427L9.67,41.12c-2.435,2.435-2.435,6.419,0,8.854
		l22.449,22.447c2.435,2.436,6.418,2.436,8.854,0L70.064,43.33c2.438-2.436,4.429-7.245,4.429-10.688V13.86
		C74.493,10.417,71.676,7.6,68.23,7.6z M59.915,28.428c-3.451,0-6.248-2.797-6.248-6.249c0-3.45,2.797-6.248,6.248-6.248
		c3.448,0,6.246,2.798,6.246,6.248C66.161,25.631,63.363,28.428,59.915,28.428z"/>
</g>
</svg>
