<?xml version="1.0" encoding="utf-8"?>
<!-- Generator: Adobe Illustrator 16.0.0, SVG Export Plug-In . SVG Version: 6.00 Build 0)  -->
<!DOCTYPE svg PUBLIC "-//W3C//DTD SVG 1.1//EN" "http://www.w3.org/Graphics/SVG/1.1/DTD/svg11.dtd">
<svg version="1.1" id="Layer_2_1_" xmlns="http://www.w3.org/2000/svg" xmlns:xlink="http://www.w3.org/1999/xlink" x="0px" y="0px"
	 width="76.172px" height="75.785px" viewBox="0 0 76.172 75.785" enable-background="new 0 0 76.172 75.785" xml:space="preserve">
<path fill="#444444" d="M68.681,7.428H53.509c-3.575,0-8.569,2.07-11.1,4.598L16.926,37.509c-2.529,2.528-2.529,6.666,0,9.195
	l18.981,18.98c2.529,2.528,6.667,2.528,9.196,0l25.483-25.482c2.529-2.529,4.598-7.523,4.598-11.1V13.93
	C75.184,10.354,72.258,7.428,68.681,7.428z M60.013,29.103c-3.594,0-6.504-2.911-6.504-6.502c0-3.591,2.91-6.503,6.504-6.503
	c3.59,0,6.502,2.912,6.502,6.503C66.515,26.191,63.603,29.103,60.013,29.103z M7.358,43.64l23.19,23.19
	c-2.457,1.297-5.585,0.916-7.646-1.146L3.921,46.705c-2.527-2.529-2.527-6.667,0-9.195l25.484-25.483
	c2.529-2.528,7.524-4.598,11.1-4.598L7.358,40.574C6.517,41.417,6.517,42.796,7.358,43.64z"/>
</svg>
